<svg width="395" height="185" viewBox="0 0 395 185" fill="none" xmlns="http://www.w3.org/2000/svg">
<mask id="path-1-outside-1" maskUnits="userSpaceOnUse" x="0.412774" y="0.810889" width="394.703" height="183.806" fill="black">
<rect fill="white" x="0.412774" y="0.810889" width="394.703" height="183.806"/>
<path d="M121.065 30.5181C121.248 31.1445 121.139 31.7322 120.737 32.2813C120.394 32.7611 119.554 33.4449 118.218 34.3327C115.472 35.9863 113.938 37.1805 113.617 37.9153C113.32 38.1982 112.635 38.8043 111.56 39.7335C110.548 40.6572 109.267 41.7972 107.715 43.1536C105.374 45.0288 103.343 46.7805 101.622 48.4087C99.965 50.0313 98.8831 51.2502 98.3762 52.0655C98.185 52.0822 97.9383 52.2002 97.6363 52.4193C97.398 52.6329 97.1804 52.7162 96.9836 52.6692C96.8616 52.7441 96.5915 52.9604 96.173 53.3183C95.7546 53.6761 95.461 53.9909 95.292 54.2626C95.1454 54.7894 94.8712 55.3274 94.4695 55.8765C94.126 56.3562 93.6646 56.5893 93.0852 56.5758C91.9296 57.3193 89.6921 59.2818 86.3728 62.4632C87.2486 67.3334 88.8684 71.5282 91.2321 75.0476C93.438 78.9662 95.581 81.7982 97.661 83.5436C99.1282 84.8929 100.472 85.9317 101.692 86.6601C102.976 87.383 103.937 87.7165 104.574 87.6607C105.165 87.8018 106.001 88.1784 107.082 88.7905C108.164 89.4025 108.756 89.9289 108.859 90.3696C108.933 90.4916 108.988 90.7438 109.021 91.1264C109.105 92.0827 109.007 92.798 108.727 93.2722C108.511 93.7408 108.316 94.0791 108.141 94.2871C107.972 94.5588 107.665 94.7142 107.218 94.7533C106.517 94.8146 105.634 94.6349 104.569 94.2141C103.555 94.3671 101.718 93.5642 99.0584 91.8052C96.399 90.0463 94.3273 88.3966 92.8434 86.8561C90.9044 84.5202 89.2081 82.3879 87.7545 80.4593C86.3646 78.525 85.2449 76.3745 84.3954 74.0075C84.04 72.8822 83.4112 71.2026 82.5091 68.9687C81.9568 67.7964 81.6265 66.958 81.5181 66.4535L81.3591 64.6365L80.4625 67.6059C80.4155 67.8027 80.0931 68.891 79.4954 70.8706C78.9614 72.8447 78.2369 76.313 77.322 81.2756L76.2269 86.3825C75.1621 91.1013 74.4277 94.0886 74.0236 95.3446C73.6833 96.5951 73.2581 97.2426 72.7481 97.2872C72.493 97.3095 72.1284 97.1808 71.6542 96.9011C71.2494 96.6795 70.9458 96.5133 70.7433 96.4026C70.2054 96.1284 69.8296 95.8722 69.616 95.6339C69.4025 95.3956 69.2789 95.0852 69.2455 94.7026C69.2064 94.2563 69.2961 93.4454 69.5145 92.2699C69.3782 91.4467 69.3722 90.6442 69.4966 89.8623C69.6209 89.0805 69.6775 88.6259 69.6663 88.4984C70.1126 88.4593 70.2911 87.9297 70.2019 86.9096C70.1573 86.3996 70.3466 85.2587 70.7698 83.4871L71.3711 80.4471L72.2761 77.5733C72.8212 75.7268 73.0882 74.7398 73.0771 74.6122C73.0045 73.7834 73.3269 72.6952 74.0442 71.3475C74.2323 70.5601 74.3829 69.7118 74.4961 68.8025C74.6093 67.8931 74.6408 67.1516 74.5906 66.5778C74.6902 66.2478 74.9767 65.4839 75.4501 64.2861C75.9235 63.0883 76.2375 61.9044 76.3921 60.7345C76.428 60.4102 76.493 60.0511 76.587 59.6574C76.7448 59.2582 76.8942 58.7632 77.0353 58.1727L79.4382 49.2895L80.5883 45.9124C80.6879 45.5825 81.0159 44.558 81.5721 42.8389C82.1922 41.1143 82.6297 40.2409 82.8848 40.2186L82.7927 39.1666C82.7704 38.9116 83.0486 38.052 83.6272 36.588L84.574 34.1924C85.0115 33.319 85.3243 32.4885 85.5124 31.7011C85.7587 30.8444 85.9025 30.2858 85.944 30.0252C85.9966 29.8921 86.1046 29.6578 86.268 29.3222C86.4313 28.9867 86.6294 28.6803 86.8621 28.403C87.5188 27.8315 88.1341 27.5207 88.7079 27.4705C89.6005 27.3924 90.4213 27.9631 91.1704 29.1824C91.6948 30.036 91.9877 30.8134 92.0491 31.5147C92.1048 32.1523 91.8849 32.9425 91.3891 33.8853C89.6286 38.7291 87.8474 43.7033 86.0454 48.8078C84.3072 53.9067 83.4715 56.8387 83.5385 57.6038L86.5809 54.9284C88.0935 53.1257 90.547 50.6946 93.9412 47.6352L104.868 37.0426C106.575 35.9938 108.556 34.4071 110.811 32.2824C111.415 31.8441 111.895 31.4488 112.249 31.0966C112.604 30.7443 112.903 30.4933 113.147 30.3434C113.502 29.9912 114.22 29.3823 115.3 28.5168C116.375 27.5876 117.075 27.1409 117.399 27.1768C118.073 26.7966 118.866 27.0485 119.778 27.9323C120.691 28.8162 121.12 29.6781 121.065 30.5181Z"/>
<path d="M120.157 87.0683C119.392 87.1353 118.775 87.0608 118.307 86.8448C117.838 86.6288 117.159 86.2064 116.268 85.5776C113.969 83.5302 112.739 81.582 112.577 79.7331C112.538 79.2868 112.542 78.9652 112.589 78.7684C112.741 78.3053 112.766 77.8535 112.663 77.4128C112.624 76.9665 112.599 76.6796 112.588 76.552C112.31 76.3193 112.169 76.1711 112.163 76.1073C112.152 75.9798 112.208 75.8786 112.33 75.8037C112.446 75.665 112.53 75.5292 112.583 75.3961C112.965 75.3626 113.062 75.0008 112.873 74.3106C112.701 73.8117 112.859 72.6737 113.346 70.8965C113.827 69.0555 114.482 67.36 115.31 65.8099C115.911 64.6009 116.805 63.0772 117.994 61.2386C119.246 59.3945 120.375 57.9787 121.38 56.9913C122.793 55.5185 124.078 54.4104 125.233 53.6668C126.389 52.9233 127.686 52.328 129.124 51.8809C130.372 51.4506 131.218 51.2159 131.665 51.1768C132.111 51.1378 132.505 51.2318 132.846 51.4589C133.245 51.6168 133.757 51.9575 134.381 52.4811C136.169 53.0955 137.435 53.9806 138.179 55.1362C138.98 56.2224 139.49 58.0088 139.707 60.4953C140.07 64.6395 138.774 69.2821 135.819 74.4232C134.536 76.6555 133.308 78.4012 132.133 79.6604C130.953 80.8558 129.366 82.1831 127.374 83.6423C126.119 84.7158 124.937 85.5259 123.828 86.0726C122.778 86.55 121.554 86.8819 120.157 87.0683ZM128.451 76.1278C129.831 74.2726 130.9 72.5408 131.659 70.9325C132.481 69.3187 133.203 67.296 133.826 64.8645C134.05 63.7528 134.095 62.4318 133.961 60.9017C133.794 58.989 133.444 57.9274 132.911 57.717C132.246 57.454 131.595 57.3504 130.957 57.4062C129.554 57.5289 128.144 58.2948 126.725 59.7038C125.016 61.4595 123.531 63.5809 122.271 66.0682C121.005 68.4917 119.758 71.4919 118.529 75.0686C118.009 76.4632 117.804 77.7981 117.916 79.0733C117.999 80.0296 118.289 80.7752 118.786 81.3099C119.346 81.8391 120.041 82.0675 120.87 81.9949C122.974 81.8109 125.501 79.8552 128.451 76.1278Z"/>
<path d="M180.869 78.7694C179.593 78.881 178.519 78.718 177.646 78.2805C176.767 77.7792 175.984 76.916 175.299 75.6911C174.547 73.7011 174.081 71.686 173.903 69.6458C173.819 68.6895 173.856 68.0116 174.014 67.6124C174.247 67.335 174.295 66.7847 174.159 65.9615C174.081 65.0689 174.025 64.4313 173.991 64.0488C173.799 62.588 173.289 61.8938 172.46 61.9663C171.886 62.0165 171.268 62.2954 170.606 62.8031C167.231 65.3469 164.402 67.5218 162.118 69.3277C159.835 71.1336 157.664 73.1223 155.606 75.294C154.802 76.3922 154.211 77.3434 153.831 78.1475C153.452 78.9516 153.181 79.5214 153.017 79.8569C152.848 80.1287 152.605 80.2785 152.286 80.3064C151.914 80.4674 151.665 80.5535 151.537 80.5646C151.219 80.5925 150.822 80.4666 150.348 80.1869C149.868 79.8434 149.559 79.6134 149.42 79.4971C149.143 79.2644 148.692 78.8862 148.068 78.3626C147.439 77.7752 147.081 77.3568 146.995 77.1074C146.95 76.5973 147.038 75.4011 147.259 73.5187C147.544 71.6307 147.791 70.4205 148.001 69.8882C148.193 69.8714 148.446 69.4638 148.762 68.6653C149.072 67.803 149.367 67.1347 149.646 66.6605C149.754 65.6874 150.39 63.4153 151.556 59.8442C152.314 58.2359 152.808 56.9078 153.038 55.8598C153.331 54.8063 153.475 53.5088 153.468 51.9675L153.452 51.7762C153.429 51.5212 153.508 51.3216 153.688 51.1773C153.863 50.9693 154.046 50.857 154.237 50.8402C154.655 50.4824 155.056 50.2868 155.438 50.2533C156.267 50.1808 157.141 50.6183 158.059 51.5659C159.121 52.6936 159.711 53.9269 159.828 55.2658C159.973 56.9235 159.15 59.6295 157.358 63.3839C157.206 63.847 156.975 64.5096 156.665 65.3719C156.419 66.2287 156.309 66.8164 156.337 67.1352L161.375 63.0325C161.835 62.4141 163.116 61.2741 165.219 59.6124C167.323 57.9508 168.812 56.9853 169.688 56.716C171.157 55.8808 172.082 55.4464 172.465 55.413C173.23 55.346 174.3 55.8306 175.676 56.8666C177.115 57.8971 177.996 58.7837 178.318 59.5265C178.379 60.2278 178.487 60.7323 178.643 61.0399C179.073 62.2872 179.364 63.7715 179.514 65.4929C179.615 66.6405 179.611 67.7009 179.503 68.674C179.454 69.5777 179.307 70.1045 179.064 70.2543C179.069 70.3181 179.109 70.4109 179.184 70.5329C179.259 70.6548 179.392 70.7074 179.584 70.6907L179.625 71.1688C179.115 71.2135 179.099 71.761 179.576 72.8114C180.054 73.8618 180.636 74.646 181.324 75.164C182.017 75.7458 182.392 76.3555 182.448 76.993C182.515 77.7581 181.988 78.3502 180.869 78.7694Z"/>
<path d="M195.836 78.9054C195.454 78.9389 194.9 78.8588 194.177 78.6651C193.453 78.4715 192.987 78.2874 192.779 78.1128C192.086 77.531 191.703 76.8257 191.631 75.9969C191.508 74.5943 192.061 72.8433 193.291 70.7442C193.607 69.9456 194.332 67.2161 195.466 62.5555L196.918 57.1282C196.951 56.0332 196.82 55.2737 196.526 54.8497C196.226 54.362 195.659 54.1225 194.825 54.1313L194.251 54.1815C193.677 54.2317 193.287 54.1695 193.079 53.995C192.865 53.7567 192.716 53.1594 192.633 52.203C192.629 51.4324 192.771 50.8418 193.056 50.4314C193.341 50.021 193.844 49.5273 194.564 48.9503C195.54 48.351 196.57 48.0039 197.654 47.9091C198.674 47.8198 199.458 47.976 200.007 48.3777C200.412 48.5993 200.717 49.1508 200.923 50.0322C201.187 50.8443 201.361 51.7285 201.444 52.6849C201.586 53.5719 201.706 54.2039 201.803 54.5808C202.094 54.2342 202.803 53.5297 203.931 52.4673C205.117 51.3357 206.117 50.2845 206.931 49.3138C207.948 48.4539 209.127 47.6119 210.469 46.7879C211.81 45.9639 212.767 45.5267 213.341 45.4765C214.043 45.4152 214.761 45.5451 215.495 45.8663C216.225 46.1237 216.739 46.4963 217.039 46.984C217.702 47.9539 218.07 48.8533 218.142 49.6821C218.22 50.5747 217.948 51.498 217.324 52.4519C216.812 53.2035 216.126 53.8095 215.267 54.2702C214.408 54.7308 213.787 54.9779 213.404 55.0113C213.022 55.0448 212.519 54.7997 211.895 54.2761C211.271 53.7525 210.91 53.3022 210.813 52.9253C210.79 52.6702 210.006 53.2528 208.46 54.673C206.972 56.0238 205.821 57.1845 205.007 58.1552C204.092 59.4558 203.18 61.1418 202.269 63.2131C201.422 65.2788 200.154 68.4092 198.465 72.6043C198.313 73.0674 197.961 74.1903 197.411 75.973C197.181 77.021 196.958 77.7793 196.742 78.2479C196.521 78.6528 196.219 78.872 195.836 78.9054Z"/>
<path d="M232.801 75.8641C232.175 76.0474 231.607 76.1614 231.097 76.206C230.268 76.2785 229.497 76.2817 228.785 76.2155C228.067 76.0856 227.697 75.8931 227.674 75.6381C227.658 75.4468 227.614 75.3221 227.545 75.2639C227.476 75.2058 227.345 75.185 227.154 75.2018C227.085 75.1436 226.88 75.0009 226.539 74.7738C226.197 74.5467 225.795 74.357 225.332 74.2048C224.68 73.3624 224.31 72.4311 224.221 71.411C224.126 70.3272 224.265 68.6125 224.638 66.2671C224.651 64.2101 225.384 61.5762 226.838 58.3653C228.291 55.1544 230.046 52.0778 232.101 49.1354C234.22 46.1875 236.157 44.0907 237.911 42.8451C238.784 41.8051 239.953 41.221 241.42 41.0927C242.567 40.9923 243.676 41.1843 244.747 41.6689C245.684 42.1009 246.684 42.8807 247.746 44.0084C248.872 45.1305 249.778 46.304 250.463 47.529C250.802 48.463 251.01 49.3763 251.088 50.2689C251.172 51.2253 251.176 52.7347 251.099 54.7972C250.881 55.9727 250.716 57.4005 250.606 59.0804C250.56 60.7548 250.59 62.1977 250.696 63.4091C250.647 64.3128 250.775 65.0405 251.08 65.592C251.379 66.0797 251.752 66.3041 252.199 66.265C252.517 66.2371 252.86 66.1108 253.226 65.8861C253.835 65.5115 254.523 65.2908 255.288 65.2238C255.989 65.1625 256.58 65.3035 257.059 65.647C257.539 65.9905 257.812 66.5448 257.879 67.3099C257.98 68.4575 257.283 69.6748 255.79 70.9619C254.36 72.2434 252.944 72.9455 251.541 73.0682C250.585 73.1519 249.628 72.4968 248.671 71.1029C247.772 69.6397 246.837 67.762 245.865 65.47L245.099 63.3206L241.33 67.6014L239.323 69.9934C238.392 71.1028 237.871 71.7587 237.76 71.9611C237.165 73.2338 235.512 74.5348 232.801 75.8641ZM232.595 70.1966C234.047 69.1701 235.791 67.4435 237.827 65.0168C239.863 62.5901 241.525 60.2925 242.813 58.124C244.561 55.3371 245.578 52.6462 245.865 50.0513C245.543 49.3085 245.062 48.5797 244.421 47.8648C243.781 47.1499 243.234 46.7802 242.782 46.7554C241.507 46.867 240.233 47.7173 238.958 49.3065C237.684 50.8956 236.205 53.0808 234.521 55.8622L231.775 60.8244C231.437 61.3679 230.887 62.7972 230.126 65.1124C229.36 67.3638 228.996 68.7126 229.035 69.1589C229.157 70.5615 229.633 71.2266 230.462 71.1541C231.1 71.0983 231.81 70.7791 232.595 70.1966Z"/>
<path d="M284.601 73.8378C284.172 74.0681 283.797 74.1972 283.479 74.2251C283.224 74.2474 282.894 74.1477 282.489 73.9262C282.084 73.7046 281.575 73.3958 280.962 72.9997C280.455 72.3374 280.112 71.725 279.934 71.1623C279.82 70.5941 279.688 69.4493 279.537 67.7278C279.573 65.9259 280.03 62.7058 280.909 58.0676C281.782 53.3655 282.447 50.32 282.904 48.9309C283.086 48.0798 283.153 47.3673 283.102 46.7935C283.058 46.2834 282.871 45.9786 282.541 45.879C282.205 45.7156 281.554 45.612 280.586 45.5681C278.205 45.5195 276.069 46.4451 274.18 48.345C272.354 50.2394 270.452 53.104 268.475 56.9389C266.714 60.3053 265.936 63.1679 266.143 65.5269C266.182 65.9732 266.282 66.382 266.443 66.7534C266.679 67.2467 267.211 67.4571 268.04 67.3846C268.614 67.3344 269.304 67.1456 270.11 66.818C270.981 66.4849 271.718 66.0992 272.322 65.6609C272.688 65.4361 273.852 64.7882 275.814 63.7171C276.196 63.6837 276.462 63.7889 276.612 64.0327C276.82 64.2073 276.952 64.6133 277.008 65.2509C277.053 65.7609 277.405 66.1156 278.065 66.3148C278.348 66.6113 278.018 67.2504 277.076 68.2323C276.128 69.1504 274.717 70.2697 272.841 71.5902C271.286 72.176 269.871 72.5246 268.596 72.6362C267.32 72.7477 266.041 72.4421 264.757 71.7192C262.547 70.6919 261.305 68.6162 261.032 65.4922C260.848 63.3882 261.161 60.7268 261.972 57.5079C262.833 54.8628 263.825 52.6238 264.95 50.7908C266.132 48.8885 267.681 46.7614 269.595 44.4096C269.886 44.063 270.487 43.5928 271.399 42.999C272.369 42.336 273.443 41.7602 274.621 41.2717C276.605 40.4556 278.267 39.989 279.606 39.8719C280.753 39.7715 281.799 39.9691 282.741 40.4648L284.001 40.5473C284.512 40.5027 284.875 40.2461 285.091 39.7775C285.37 39.3033 285.759 38.2414 286.257 36.5917L288.096 30.0706C288.489 28.6871 289.075 26.58 289.856 23.7492C290.7 20.9128 291.476 18.4036 292.184 16.2216C292.558 15.3537 292.834 14.4623 293.011 13.5474C293.251 12.6269 293.459 12.0627 293.633 11.8547L295.45 11.6957C295.769 11.6678 296.27 11.881 296.952 12.3353C297.629 12.7258 298.093 13.2633 298.346 13.9479C298.407 14.6493 298.24 16.0451 297.845 18.1355C297.444 20.1622 296.839 22.4315 296.031 24.9435C295.633 26.2633 295.302 27.2559 295.039 27.9213C293.271 33.4083 292.086 37.4951 291.486 40.1816L290.15 44.7314C289.524 46.3923 289.181 47.6108 289.12 48.387C288.836 50.275 288.468 51.9454 288.017 53.3983C287.56 54.7874 287.308 55.5803 287.261 55.7772L286.626 58.4346C285.816 61.6535 285.275 63.9173 285.004 65.2259C284.791 66.4651 284.741 67.7223 284.852 68.9975C284.964 70.2726 285.12 71.319 285.32 72.1367C285.381 72.838 285.142 73.405 284.601 73.8378Z"/>
<path d="M65.9772 115.643C66.1605 116.27 66.0513 116.857 65.6497 117.406C65.3062 117.886 64.4666 118.57 63.1309 119.458C60.3845 121.111 58.8508 122.306 58.5296 123.04C58.2331 123.323 57.5474 123.929 56.4723 124.859C55.4609 125.782 54.1794 126.922 52.6277 128.279C50.2862 130.154 48.2552 131.906 46.5345 133.534C44.8776 135.156 43.7958 136.375 43.2889 137.191C43.0976 137.207 42.851 137.325 42.5489 137.544C42.3106 137.758 42.093 137.841 41.8962 137.794C41.7743 137.869 41.5041 138.086 41.0857 138.443C40.6673 138.801 40.3736 139.116 40.2046 139.388C40.058 139.915 39.7838 140.452 39.3822 141.002C39.0387 141.481 38.5772 141.714 37.9979 141.701C36.8423 142.444 34.6048 144.407 31.2854 147.588C32.1612 152.459 33.781 156.653 36.1447 160.173C38.3507 164.091 40.4936 166.923 42.5737 168.669C44.0408 170.018 45.3845 171.057 46.6046 171.785C47.8885 172.508 48.8492 172.842 49.4868 172.786C50.0773 172.927 50.9133 173.303 51.9948 173.916C53.0763 174.528 53.6684 175.054 53.7712 175.495C53.8461 175.617 53.9003 175.869 53.9338 176.251C54.0174 177.208 53.9194 177.923 53.6397 178.397C53.4237 178.866 53.2284 179.204 53.0539 179.412C52.8849 179.684 52.5773 179.839 52.131 179.878C51.4297 179.94 50.5467 179.76 49.482 179.339C48.4674 179.492 46.6305 178.689 43.971 176.93C41.3116 175.171 39.2399 173.522 37.756 171.981C35.8171 169.645 34.1208 167.513 32.6672 165.584C31.2773 163.65 30.1576 161.5 29.3081 159.133C28.9526 158.007 28.3239 156.328 27.4217 154.094C26.8694 152.921 26.5391 152.083 26.4307 151.579L26.2718 149.762L25.3752 152.731C25.3281 152.928 25.0058 154.016 24.408 155.996C23.874 157.97 23.1496 161.438 22.2346 166.401L21.1395 171.508C20.0747 176.226 19.3403 179.214 18.9362 180.47C18.5959 181.72 18.1708 182.368 17.6607 182.412C17.4057 182.435 17.0411 182.306 16.5669 182.026C16.162 181.805 15.8584 181.638 15.656 181.528C15.118 181.254 14.7423 180.997 14.5287 180.759C14.3151 180.521 14.1916 180.21 14.1581 179.828C14.1191 179.381 14.2087 178.571 14.4271 177.395C14.2908 176.572 14.2849 175.769 14.4092 174.987C14.5335 174.206 14.5901 173.751 14.579 173.623C15.0253 173.584 15.2038 173.055 15.1145 172.035C15.0699 171.525 15.2592 170.384 15.6824 168.612L16.2838 165.572L17.1887 162.698C17.7339 160.852 18.0009 159.865 17.9897 159.737C17.9172 158.909 18.2396 157.82 18.9568 156.473C19.1449 155.685 19.2956 154.837 19.4087 153.928C19.5219 153.018 19.5534 152.277 19.5032 151.703C19.6028 151.373 19.8893 150.609 20.3627 149.411C20.8362 148.213 21.1502 147.03 21.3048 145.86C21.3407 145.535 21.4056 145.176 21.4997 144.783C21.6575 144.383 21.8069 143.888 21.948 143.298L24.3509 134.415L25.5009 131.037C25.6005 130.708 25.9285 129.683 26.4848 127.964C27.1048 126.239 27.5424 125.366 27.7974 125.344L27.7054 124.292C27.6831 124.037 27.9612 123.177 28.5398 121.713L29.4866 119.318C29.9242 118.444 30.237 117.614 30.4251 116.826C30.6713 115.97 30.8152 115.411 30.8566 115.15C30.9092 115.017 31.0172 114.783 31.1806 114.447C31.344 114.112 31.542 113.805 31.7748 113.528C32.4314 112.957 33.0467 112.646 33.6205 112.596C34.5131 112.518 35.334 113.088 36.0831 114.308C36.6075 115.161 36.9003 115.939 36.9617 116.64C37.0175 117.277 36.7975 118.068 36.3018 119.01C34.5413 123.854 32.76 128.828 30.958 133.933C29.2198 139.032 28.3842 141.964 28.4511 142.729L31.4935 140.054C33.0062 138.251 35.4596 135.82 38.8539 132.76L49.7803 122.168C51.4873 121.119 53.4686 119.532 55.724 117.408C56.3281 116.969 56.8075 116.574 57.1621 116.222C57.5168 115.869 57.816 115.618 58.0599 115.469C58.4145 115.116 59.1322 114.507 60.2129 113.642C61.288 112.713 61.9877 112.266 62.3121 112.302C62.9855 111.922 63.7785 112.174 64.691 113.057C65.6035 113.941 66.0322 114.803 65.9772 115.643Z"/>
<path d="M65.0697 172.193C64.3046 172.26 63.6878 172.186 63.2192 171.97C62.7506 171.754 62.0712 171.332 61.181 170.703C58.8818 168.655 57.6513 166.707 57.4896 164.858C57.4505 164.412 57.4545 164.09 57.5015 163.893C57.6538 163.43 57.6785 162.979 57.5757 162.538C57.5366 162.092 57.5115 161.805 57.5004 161.677C57.223 161.444 57.0816 161.296 57.076 161.232C57.0648 161.105 57.1202 161.004 57.2422 160.929C57.3585 160.79 57.443 160.654 57.4956 160.521C57.8781 160.488 57.975 160.126 57.7861 159.436C57.614 158.937 57.7714 157.799 58.2583 156.022C58.7397 154.181 59.3944 152.485 60.2225 150.935C60.8234 149.726 61.718 148.202 62.9063 146.364C64.1583 144.52 65.2872 143.104 66.293 142.116C67.706 140.644 68.9903 139.535 70.1459 138.792C71.3015 138.048 72.5985 137.453 74.0371 137.006C75.2843 136.576 76.1311 136.341 76.5773 136.302C77.0236 136.263 77.4173 136.357 77.7584 136.584C78.1577 136.742 78.6694 137.083 79.2934 137.606C81.0817 138.221 82.3477 139.106 83.0912 140.261C83.893 141.348 84.4026 143.134 84.6201 145.62C84.9827 149.765 83.6864 154.407 80.7312 159.548C79.4489 161.781 78.2204 163.526 77.0456 164.785C75.8653 165.981 74.279 167.308 72.2866 168.767C71.0314 169.841 69.8495 170.651 68.7409 171.198C67.6905 171.675 66.4668 172.007 65.0697 172.193ZM73.3638 161.253C74.7433 159.398 75.8124 157.666 76.5712 156.058C77.3936 154.444 78.1161 152.421 78.7385 149.99C78.9625 148.878 79.0075 147.557 78.8737 146.027C78.7063 144.114 78.3565 143.053 77.8241 142.842C77.1587 142.579 76.5072 142.476 75.8696 142.531C74.467 142.654 73.0563 143.42 71.6377 144.829C69.9283 146.585 68.4435 148.706 67.1835 151.193C65.9179 153.617 64.6706 156.617 63.4417 160.194C62.9212 161.588 62.7168 162.923 62.8284 164.198C62.912 165.155 63.2021 165.9 63.6986 166.435C64.2589 166.964 64.9534 167.193 65.7823 167.12C67.8862 166.936 70.4134 164.98 73.3638 161.253Z"/>
<path d="M93.8356 167.749C93.2921 167.412 92.9107 167.092 92.6916 166.789C92.4724 166.487 92.335 166.018 92.2792 165.38C92.229 164.806 92.219 164.325 92.2493 163.937C92.2509 161.753 92.5088 159.193 93.0228 156.257L93.3337 154.302C93.3855 152.691 94.2084 149.247 95.8024 143.968C97.3963 138.688 98.75 135.069 99.8634 133.108C100.346 132.745 100.874 132.538 101.447 132.488C102.276 132.415 103.003 132.641 103.627 133.164C104.031 133.386 104.265 133.847 104.326 134.549C104.382 135.186 104.21 136.165 103.812 137.485C103.472 138.735 102.834 140.622 101.898 143.145C101.687 143.677 101.325 144.673 100.81 146.131C100.359 147.584 100.145 148.438 100.167 148.693C100.178 148.821 100.215 148.882 100.279 148.876C100.407 148.865 100.531 148.822 100.653 148.747C100.77 148.608 100.889 148.501 101.011 148.427C101.606 147.154 103.151 145.348 105.644 143.01C108.202 140.666 109.968 139.195 110.944 138.595C111.368 138.301 111.919 137.996 112.598 137.68C113.277 137.363 113.739 137.13 113.983 136.98C114.958 136.381 116.147 136.02 117.55 135.897C118.442 135.819 119.221 135.912 119.887 136.175C120.61 136.368 121.125 136.741 121.43 137.293C121.533 137.733 121.723 138.07 122 138.303C122.341 138.53 122.579 138.67 122.712 138.722C122.903 138.706 123.039 138.79 123.119 138.976C123.194 139.098 123.234 139.19 123.24 139.254C123.279 139.701 123.049 140.01 122.55 140.182C122.046 140.29 121.127 140.435 119.794 140.616C119.098 140.741 118.379 140.964 117.636 141.286C116.893 141.608 116.156 141.994 115.424 142.444C112.032 144.796 109.494 146.624 107.809 147.928C106.188 149.226 104.572 150.942 102.959 153.074C102.325 153.901 101.52 155.352 100.546 157.429C100.138 157.915 99.7635 159.136 99.4208 161.093C99.1362 162.981 99.0135 164.148 99.0525 164.595C99.0055 164.792 98.9114 165.185 98.7704 165.776C98.6237 166.303 98.3814 166.838 98.0435 167.381C97.3677 168.468 96.7748 169.034 96.2647 169.079C95.6909 169.129 94.8812 168.686 93.8356 167.749Z"/>
<path d="M134.66 164.756C134.033 164.939 133.465 165.053 132.955 165.098C132.126 165.17 131.356 165.174 130.643 165.107C129.925 164.977 129.555 164.785 129.533 164.53C129.516 164.339 129.473 164.214 129.404 164.156C129.334 164.098 129.204 164.077 129.013 164.094C128.943 164.035 128.738 163.893 128.397 163.666C128.056 163.439 127.654 163.249 127.191 163.097C126.539 162.254 126.168 161.323 126.079 160.303C125.984 159.219 126.123 157.504 126.496 155.159C126.509 153.102 127.242 150.468 128.696 147.257C130.15 144.046 131.904 140.97 133.96 138.027C136.079 135.079 138.015 132.983 139.769 131.737C140.642 130.697 141.812 130.113 143.278 129.985C144.426 129.884 145.535 130.076 146.605 130.561C147.542 130.993 148.542 131.773 149.604 132.9C150.73 134.022 151.636 135.196 152.321 136.421C152.66 137.355 152.869 138.268 152.947 139.161C153.03 140.117 153.034 141.627 152.957 143.689C152.739 144.865 152.575 146.292 152.465 147.972C152.419 149.647 152.448 151.09 152.554 152.301C152.505 153.205 152.633 153.932 152.938 154.484C153.238 154.972 153.611 155.196 154.057 155.157C154.376 155.129 154.718 155.003 155.084 154.778C155.694 154.403 156.381 154.183 157.146 154.116C157.847 154.054 158.438 154.195 158.918 154.539C159.397 154.882 159.671 155.437 159.738 156.202C159.838 157.349 159.142 158.567 157.648 159.854C156.218 161.135 154.802 161.837 153.399 161.96C152.443 162.044 151.486 161.389 150.529 159.995C149.63 158.532 148.695 156.654 147.724 154.362L146.957 152.212L143.188 156.493L141.181 158.885C140.25 159.995 139.729 160.651 139.618 160.853C139.023 162.126 137.37 163.427 134.66 164.756ZM134.453 159.088C135.905 158.062 137.649 156.335 139.686 153.909C141.722 151.482 143.384 149.184 144.672 147.016C146.42 144.229 147.437 141.538 147.724 138.943C147.402 138.2 146.92 137.472 146.28 136.757C145.639 136.042 145.093 135.672 144.641 135.647C143.366 135.759 142.091 136.609 140.817 138.198C139.542 139.787 138.063 141.973 136.379 144.754L133.633 149.716C133.295 150.26 132.746 151.689 131.985 154.004C131.218 156.256 130.854 157.604 130.893 158.051C131.016 159.453 131.492 160.118 132.32 160.046C132.958 159.99 133.669 159.671 134.453 159.088Z"/>
<path d="M172.367 161.361C172.117 161.447 171.737 161.512 171.227 161.557C169.633 161.696 168.034 161.033 166.428 159.567C166.07 159.149 165.88 158.812 165.858 158.557C165.835 158.302 165.911 158.071 166.086 157.863C166.26 157.655 166.507 157.537 166.826 157.509C167.081 157.487 167.212 157.154 167.22 156.511C167.286 155.798 167.33 154.831 167.352 153.608C167.349 152.838 167.444 152.09 167.638 151.367C167.826 150.579 167.909 150.058 167.886 149.803C167.933 149.606 167.952 149.091 167.944 148.256C167.993 147.353 168.117 146.571 168.317 145.911C168.554 144.22 168.956 141.84 169.523 138.771C170.148 135.632 170.68 133.273 171.12 131.692C171.147 130.534 171.663 128.722 172.668 126.257C173.584 122.772 175.066 118.049 177.114 112.087C179.162 106.126 180.44 102.738 180.947 101.923C181.482 101.426 182.004 101.156 182.514 101.111C183.343 101.038 184.173 101.351 185.005 102.049C185.577 102.706 185.89 103.353 185.946 103.991C186.019 104.82 185.685 105.78 184.946 106.873C184.73 107.342 184.49 107.909 184.227 108.574C183.959 109.176 183.69 109.778 183.421 110.379C183.139 111.56 182.478 113.545 181.437 116.335C179.975 120.189 178.813 123.792 177.95 127.144C177.593 128.203 177.218 129.424 176.825 130.808C176.496 132.186 176.244 132.979 176.069 133.187C175.915 134.357 175.632 135.538 175.223 136.73C174.617 139.353 174.266 141.214 174.17 142.315L177.32 138.667C179.688 135.633 182.043 133.178 184.385 131.303C186.721 129.364 188.717 128.322 190.375 128.177C191.714 128.06 193.225 128.441 194.908 129.322C196.591 130.203 197.741 131.227 198.357 132.393C198.898 133.438 199.21 134.439 199.294 135.395C199.534 138.137 198.492 141.279 196.168 144.823C195.631 146.027 194.902 147.247 193.983 148.484C193.121 149.651 192.333 150.555 191.618 151.196C190.036 152.941 189.007 154.026 188.53 154.454C187.873 155.025 187.243 155.53 186.639 155.968C186.093 156.337 185.417 156.686 184.61 157.013C183.471 157.948 181.872 158.762 179.813 159.456C177.812 160.081 175.33 160.716 172.367 161.361ZM174.426 156.266C175.191 156.199 176.105 155.99 177.166 155.641C178.228 155.291 179.177 154.758 180.014 154.042C182.633 152.4 184.931 150.4 186.909 148.043C188.887 145.685 190.353 143.341 191.305 141.009C192.321 138.671 192.762 136.737 192.628 135.207C192.517 133.932 191.919 133.342 190.835 133.437C189.943 133.515 188.715 134.168 187.152 135.397C185.589 136.626 183.874 138.318 182.007 140.473C180.658 141.94 178.923 144.148 176.804 147.096C176.804 147.096 176.289 147.815 175.259 149.255C175.148 149.457 174.903 149.96 174.523 150.764C174.138 151.505 173.939 152.165 173.926 152.744C173.818 153.717 173.789 154.491 173.839 155.064C173.912 155.893 174.108 156.294 174.426 156.266Z"/>
<path d="M219.012 118.926C217.801 119.032 216.502 118.503 215.115 117.339C213.787 116.106 213.061 114.789 212.938 113.386C212.911 113.067 213.229 112.301 213.894 111.086C214.558 109.872 214.885 109.2 214.874 109.073C215.32 109.034 215.706 109.032 216.03 109.068C216.354 109.104 216.748 109.198 217.211 109.35C217.896 110.575 218.903 111.804 220.232 113.037C220.659 113.514 221.051 113.961 221.409 114.38C221.767 114.798 221.96 115.167 221.988 115.485C222.083 116.569 222.083 117.308 221.989 117.702C221.959 118.09 221.726 118.367 221.291 118.534C220.92 118.695 220.16 118.825 219.012 118.926ZM208.125 156.401C207.934 156.418 207.673 156.377 207.343 156.277C207.013 156.177 206.782 156.101 206.649 156.049C206.632 155.857 206.509 155.547 206.278 155.117C206.106 154.618 206.014 154.305 206.003 154.178C205.471 153.967 205.188 153.671 205.155 153.288C205.127 152.97 205.183 152.515 205.324 151.924C206.025 150.385 207.201 146.942 208.853 141.593C210.5 136.181 211.409 132.986 211.58 132.007C211.558 131.752 211.626 131.425 211.784 131.026C211.941 130.627 212.137 130.288 212.369 130.011C212.602 129.734 212.878 129.581 213.197 129.553C213.898 129.492 214.577 129.914 215.235 130.82C215.956 131.721 216.367 132.745 216.467 133.893C216.534 134.658 215.993 136.921 214.845 140.684C213.755 144.377 212.476 148.119 211.009 151.909C210.798 152.441 210.48 153.208 210.053 154.209C209.691 155.204 209.39 155.809 209.152 156.022C208.914 156.236 208.572 156.362 208.125 156.401Z"/>
<path d="M231.03 157.674C230.264 157.741 229.648 157.666 229.179 157.45C228.71 157.234 228.031 156.812 227.141 156.183C224.842 154.136 223.611 152.188 223.449 150.339C223.41 149.892 223.414 149.571 223.461 149.374C223.614 148.911 223.638 148.459 223.535 148.018C223.496 147.572 223.471 147.285 223.46 147.158C223.183 146.925 223.041 146.777 223.036 146.713C223.025 146.585 223.08 146.484 223.202 146.409C223.318 146.271 223.403 146.135 223.455 146.002C223.838 145.968 223.935 145.606 223.746 144.916C223.574 144.417 223.731 143.279 224.218 141.502C224.699 139.661 225.354 137.965 226.182 136.415C226.783 135.206 227.678 133.683 228.866 131.844C230.118 130 231.247 128.584 232.253 127.597C233.666 126.124 234.95 125.016 236.106 124.272C237.261 123.529 238.558 122.933 239.997 122.486C241.244 122.056 242.091 121.821 242.537 121.782C242.983 121.743 243.377 121.837 243.718 122.064C244.117 122.222 244.629 122.563 245.253 123.087C247.042 123.701 248.307 124.586 249.051 125.742C249.853 126.828 250.362 128.614 250.58 131.101C250.942 135.245 249.646 139.888 246.691 145.029C245.409 147.261 244.18 149.007 243.005 150.266C241.825 151.461 240.239 152.789 238.246 154.248C236.991 155.321 235.809 156.131 234.701 156.678C233.65 157.155 232.427 157.487 231.03 157.674ZM239.324 146.733C240.703 144.878 241.772 143.146 242.531 141.538C243.353 139.924 244.076 137.902 244.698 135.47C244.922 134.358 244.967 133.037 244.833 131.507C244.666 129.594 244.316 128.533 243.784 128.323C243.118 128.06 242.467 127.956 241.829 128.012C240.427 128.134 239.016 128.9 237.598 130.309C235.888 132.065 234.403 134.186 233.143 136.674C231.878 139.097 230.63 142.097 229.401 145.674C228.881 147.069 228.677 148.404 228.788 149.679C228.872 150.635 229.162 151.381 229.658 151.915C230.219 152.445 230.913 152.673 231.742 152.6C233.846 152.416 236.373 150.461 239.324 146.733Z"/>
<path d="M285.763 151.536C284.881 151.742 283.326 150.85 281.096 148.861C280.449 148.082 279.848 146.721 279.293 144.778C278.796 142.766 278.383 140.618 278.055 138.334C273.687 146.425 269.986 151.118 266.951 152.411C266.766 152.492 266.513 152.546 266.195 152.574C265.493 152.635 264.918 152.3 264.468 151.568C264.099 151.022 263.746 150.282 263.407 149.348C263.063 148.351 262.88 147.371 262.861 146.409C262.132 142.489 261.617 138.808 261.316 135.365C261.06 132.433 261.049 130.474 261.284 129.49C261.198 129.24 261.147 129.02 261.13 128.829C261.107 128.574 261.094 128.414 261.088 128.351C260.944 128.17 260.833 127.634 260.754 126.741C260.66 125.658 260.62 124.473 260.636 123.186C260.716 121.894 260.84 121.113 261.009 120.841C261.103 120.447 261.524 120.121 262.273 119.863C263.246 119.971 263.789 120.308 263.903 120.877C264.036 120.929 264.21 121.075 264.423 121.313C264.701 121.546 264.964 121.619 265.213 121.533C265.618 121.755 265.963 123.491 266.247 126.743C266.217 127.131 266.227 127.612 266.277 128.186C266.386 128.69 266.451 129.07 266.473 129.325C266.507 129.707 266.497 129.965 266.445 130.098C266.556 131.373 266.805 133.118 267.192 135.333C267.309 136.672 267.372 137.759 267.381 138.593L267.586 142.044C267.895 143.366 268.126 144.181 268.282 144.489C268.501 144.791 268.791 144.798 269.151 144.509C269.766 144.198 271.375 141.295 273.978 135.799C276.025 132.023 277.331 129.692 277.896 128.807C277.983 126.872 278.139 124.61 278.362 122.021C279.224 120.853 280.037 120.236 280.802 120.169C281.439 120.113 281.983 120.451 282.432 121.183C283.364 121.551 283.872 122.213 283.955 123.17C283.994 123.616 283.99 123.938 283.943 124.134L282.961 129.424C282.659 131.121 282.662 133.723 282.969 137.229C283.248 140.417 283.637 142.664 284.137 143.969C284.182 144.479 284.491 144.709 285.065 144.659C285.702 144.603 286.495 144.116 287.442 143.198C288.717 141.609 290.135 139.461 291.697 136.755C293.317 133.979 294.105 132.336 294.06 131.826C294.016 131.316 294.096 130.763 294.301 130.167C294.5 129.507 294.777 129.001 295.131 128.649C295.359 128.307 295.514 127.876 295.597 127.355C295.679 126.834 295.771 126.408 295.87 126.078C295.923 125.945 295.973 125.78 296.02 125.583C296.125 125.317 296.227 125.019 296.327 124.689L296.206 124.411C296.178 124.092 296.371 123.722 296.784 123.3C297.191 122.815 297.418 122.474 297.465 122.277C297.567 121.24 298.064 120.683 298.957 120.605C299.467 120.56 299.965 120.741 300.45 121.148C300.994 121.486 301.328 122.003 301.453 122.699C301.559 123.91 301.184 125.87 300.329 128.579C299.468 131.224 298.455 133.594 297.289 135.687C297.184 135.953 297.032 136.416 296.832 137.076C296.628 137.672 296.248 138.477 295.694 139.489C295.199 140.432 294.441 141.686 293.422 143.253C292.577 144.612 291.742 145.713 290.916 146.556C289.839 148.192 288.916 149.397 288.149 150.171C287.381 150.945 286.586 151.4 285.763 151.536Z"/>
<path d="M313.543 152.286C312.357 151.94 311.185 151.4 310.029 150.666C308.867 149.868 308.067 149.167 307.628 148.563C307.617 148.436 307.598 148.212 307.57 147.894C307.542 147.575 307.621 147.375 307.807 147.295C307.987 147.151 308.332 147.056 308.842 147.011C309.926 146.917 311.658 146.894 314.04 146.942C315.442 146.819 317.022 146.521 318.779 146.046C320.531 145.507 321.483 145.006 321.635 144.543C321.827 144.526 321.919 144.486 321.914 144.422C321.903 144.295 321.62 143.998 321.065 143.533C320.938 143.544 320.642 143.474 320.179 143.321C319.711 143.105 319.413 143.003 319.285 143.014C319.263 142.759 318.948 142.465 318.341 142.133C317.728 141.737 317.057 141.41 316.328 141.153C314.345 139.784 312.94 138.783 312.114 138.149C311.282 137.45 310.947 136.934 311.111 136.598L311.069 136.12C310.623 136.159 310.06 135.598 309.38 134.437C308.758 133.206 308.4 132.049 308.305 130.965C308.205 129.818 308.544 128.182 309.321 126.058C310.163 123.928 311.166 122.17 312.329 120.784C313.969 118.97 316.111 117.016 318.755 114.921C321.462 112.821 323.622 111.444 325.235 110.789C326.28 110.248 327.344 109.93 328.428 109.835C329.448 109.746 330.329 109.894 331.069 110.278C331.942 110.716 332.803 111.38 333.652 112.269C334.565 113.153 335.182 113.966 335.504 114.709C335.627 116.111 335.587 117.496 335.386 118.863C335.242 120.16 334.883 120.834 334.31 120.884C334.246 120.89 334.153 120.93 334.031 121.005C333.909 121.08 333.859 121.245 333.882 121.5C333.904 121.755 333.807 122.117 333.591 122.586C333.37 122.99 333.052 123.404 332.64 123.825C331.326 124.968 330.223 125.578 329.331 125.657C328.629 125.718 328.152 125.406 327.9 124.722C327.761 124.605 327.617 124.425 327.467 124.181C327.317 123.937 327.147 123.824 326.955 123.841C326.892 123.846 326.756 123.762 326.548 123.587C326.398 123.343 326.306 123.03 326.273 122.648C326.256 122.456 326.303 122.259 326.414 122.057C326.583 121.785 326.696 121.615 326.754 121.545C327.137 121.512 327.71 120.723 328.475 119.178C329.233 117.57 329.59 116.511 329.546 116.001C329.512 115.618 329.429 115.401 329.296 115.348C329.227 115.29 328.937 115.283 328.427 115.328C323.649 117.995 320.705 119.955 319.594 121.208C319.436 121.607 319.299 121.876 319.183 122.015C319.13 122.148 318.976 122.226 318.721 122.248C318.671 121.674 317.171 123.99 314.221 129.195C314.105 129.333 313.979 129.73 313.844 130.384C313.772 131.033 313.756 131.58 313.795 132.027C313.712 132.548 313.673 132.84 313.679 132.904C313.701 133.159 313.819 133.406 314.033 133.644C314.31 133.877 314.654 134.136 315.064 134.421C315.469 134.643 315.877 134.896 316.287 135.182C319.82 137.378 322.28 139.058 323.666 140.222C325.111 141.316 325.998 142.266 326.325 143.073C327.265 144.275 327.78 145.387 327.87 146.407C327.936 147.172 327.708 147.866 327.185 148.49C326.661 149.114 325.848 149.732 324.745 150.342C324.071 150.722 322.914 151.08 321.273 151.417C319.638 151.817 318.023 152.087 316.429 152.226C315.537 152.304 314.575 152.324 313.543 152.286Z"/>
<path d="M359.804 122.798C358.172 123.968 356.859 125.111 355.864 126.226C355.509 126.578 354.98 127.139 354.276 127.907C353.567 128.611 352.939 129.148 352.394 129.517C352.982 130.365 353.449 130.935 353.796 131.225L355.639 133.57C358.102 136.759 359.892 138.851 361.007 139.846C362.121 140.84 363.787 141.883 366.002 142.974C366.615 143.37 366.92 143.922 366.918 144.629C366.724 145.352 366.476 145.824 366.174 146.043C365.93 146.193 365.121 146.488 363.746 146.93C362.784 146.95 362.037 146.855 361.505 146.644C361.036 146.428 359.987 145.813 358.356 144.8C357.252 143.933 355.606 142.374 353.418 140.124C351.288 137.805 349.328 135.599 347.539 133.507C347.209 133.408 346.926 133.111 346.69 132.618C345.782 135.46 345.354 137.168 345.404 137.742C345.116 138.859 344.927 140 344.836 141.164C344.563 143.18 344.213 144.688 343.786 145.689C343.781 147.103 343.365 147.846 342.536 147.918C342.09 147.957 341.496 147.784 340.756 147.399C340.085 147.073 339.573 146.732 339.221 146.377C338.932 146.017 338.763 145.55 338.713 144.976C338.635 144.084 338.705 143.05 338.923 141.874C339.142 140.699 339.395 139.552 339.682 138.435C339.804 136.882 339.95 135.617 340.121 134.638C340.351 133.59 340.742 132.56 341.296 131.548C341.673 129.973 342.06 128.526 342.458 127.206C343.75 122.146 344.57 118.67 344.919 116.776C345.539 115.052 346.119 113.234 346.658 111.324C347.284 109.663 348.174 106.983 349.328 103.285L350.182 99.8369C350.824 96.8898 351.562 94.673 352.395 93.1867C352.564 92.915 353.06 91.9722 353.882 90.3584C353.924 90.0978 354.168 89.9479 354.614 89.9089C355.06 89.8699 355.483 89.9292 355.882 90.087C356.276 90.1811 356.58 90.3472 356.793 90.5855C357.106 90.4939 357.493 90.8776 357.954 91.7368C358.478 92.5903 358.731 93.2749 358.712 93.7905C358.773 94.4918 358.585 95.2792 358.148 96.1527C357.973 96.3607 357.751 96.7655 357.483 97.3672C357.214 97.9689 356.885 98.6081 356.494 99.2847C356.353 99.8752 356.168 100.694 355.938 101.742C355.773 102.785 355.555 103.607 355.287 104.209C355.082 104.805 354.793 105.537 354.419 106.405C354.103 107.203 353.898 107.799 353.804 108.193C353.558 109.05 353.125 110.34 352.505 112.065C351.633 114.583 351.106 116.267 350.923 117.118C350.835 117.576 350.579 118.69 350.156 120.462C349.727 122.17 349.223 123.756 348.645 125.22C348.872 124.878 349.075 124.636 349.256 124.491C349.43 124.283 349.573 124.078 349.684 123.876C349.725 123.615 350.042 123.202 350.635 122.636C351.292 122.065 351.737 121.64 351.969 121.363C353.66 120.123 355.813 118.296 358.428 115.883C361.102 113.401 362.672 111.882 363.137 111.328C363.486 110.912 363.852 110.687 364.235 110.653C364.553 110.625 364.912 110.69 365.312 110.848C366.093 110.973 366.631 111.247 366.925 111.671C367.214 112.031 367.408 112.785 367.509 113.932C367.761 114.617 367.571 115.373 366.936 116.199C366.302 117.025 365.264 118.016 363.823 119.17C362.26 120.398 360.921 121.608 359.804 122.798Z"/>
<path d="M387.381 104.003C387.207 104.211 387.024 104.323 386.833 104.34C386.578 104.362 386.147 104.207 385.539 103.875C384.896 103.867 383.988 103.4 382.815 102.475C381.7 101.48 381.129 100.824 381.101 100.505C380.862 99.2408 380.933 97.8533 381.315 96.3422C381.696 94.8312 382.554 93.9853 383.887 93.8044C384.079 93.7876 384.339 93.8291 384.669 93.9287C384.994 93.9646 385.552 94.1084 386.345 94.3603C386.495 94.6041 386.797 95.1238 387.252 95.9191C387.771 96.7089 388.16 97.478 388.418 98.2263C388.74 98.9691 388.929 99.6593 388.985 100.297C389.118 101.827 388.584 103.062 387.381 104.003ZM379.913 143.106C378.957 143.19 378.043 142.66 377.172 141.515C376.365 140.365 375.844 139.19 375.611 137.99C375.654 135.545 375.695 133.807 375.733 132.775C376.037 130.372 376.552 127.082 377.279 122.907C378.064 118.663 378.561 116.274 378.772 115.742C378.935 115.406 379.208 115.222 379.591 115.188C379.973 115.155 380.399 115.246 380.867 115.462C381.336 115.678 381.744 115.931 382.09 116.222C382.662 116.879 382.987 117.654 383.065 118.546C383.182 119.885 382.79 122.746 381.888 127.129C381.275 130.395 380.899 132.709 380.761 134.07C380.623 135.431 380.653 136.874 380.85 138.399C380.826 138.851 380.765 139.627 380.669 140.727C380.63 141.759 380.559 142.407 380.454 142.674C380.348 142.94 380.168 143.084 379.913 143.106Z"/>
</mask>
<path d="M121.065 30.5181C121.248 31.1445 121.139 31.7322 120.737 32.2813C120.394 32.7611 119.554 33.4449 118.218 34.3327C115.472 35.9863 113.938 37.1805 113.617 37.9153C113.32 38.1982 112.635 38.8043 111.56 39.7335C110.548 40.6572 109.267 41.7972 107.715 43.1536C105.374 45.0288 103.343 46.7805 101.622 48.4087C99.965 50.0313 98.8831 51.2502 98.3762 52.0655C98.185 52.0822 97.9383 52.2002 97.6363 52.4193C97.398 52.6329 97.1804 52.7162 96.9836 52.6692C96.8616 52.7441 96.5915 52.9604 96.173 53.3183C95.7546 53.6761 95.461 53.9909 95.292 54.2626C95.1454 54.7894 94.8712 55.3274 94.4695 55.8765C94.126 56.3562 93.6646 56.5893 93.0852 56.5758C91.9296 57.3193 89.6921 59.2818 86.3728 62.4632C87.2486 67.3334 88.8684 71.5282 91.2321 75.0476C93.438 78.9662 95.581 81.7982 97.661 83.5436C99.1282 84.8929 100.472 85.9317 101.692 86.6601C102.976 87.383 103.937 87.7165 104.574 87.6607C105.165 87.8018 106.001 88.1784 107.082 88.7905C108.164 89.4025 108.756 89.9289 108.859 90.3696C108.933 90.4916 108.988 90.7438 109.021 91.1264C109.105 92.0827 109.007 92.798 108.727 93.2722C108.511 93.7408 108.316 94.0791 108.141 94.2871C107.972 94.5588 107.665 94.7142 107.218 94.7533C106.517 94.8146 105.634 94.6349 104.569 94.2141C103.555 94.3671 101.718 93.5642 99.0584 91.8052C96.399 90.0463 94.3273 88.3966 92.8434 86.8561C90.9044 84.5202 89.2081 82.3879 87.7545 80.4593C86.3646 78.525 85.2449 76.3745 84.3954 74.0075C84.04 72.8822 83.4112 71.2026 82.5091 68.9687C81.9568 67.7964 81.6265 66.958 81.5181 66.4535L81.3591 64.6365L80.4625 67.6059C80.4155 67.8027 80.0931 68.891 79.4954 70.8706C78.9614 72.8447 78.2369 76.313 77.322 81.2756L76.2269 86.3825C75.1621 91.1013 74.4277 94.0886 74.0236 95.3446C73.6833 96.5951 73.2581 97.2426 72.7481 97.2872C72.493 97.3095 72.1284 97.1808 71.6542 96.9011C71.2494 96.6795 70.9458 96.5133 70.7433 96.4026C70.2054 96.1284 69.8296 95.8722 69.616 95.6339C69.4025 95.3956 69.2789 95.0852 69.2455 94.7026C69.2064 94.2563 69.2961 93.4454 69.5145 92.2699C69.3782 91.4467 69.3722 90.6442 69.4966 89.8623C69.6209 89.0805 69.6775 88.6259 69.6663 88.4984C70.1126 88.4593 70.2911 87.9297 70.2019 86.9096C70.1573 86.3996 70.3466 85.2587 70.7698 83.4871L71.3711 80.4471L72.2761 77.5733C72.8212 75.7268 73.0882 74.7398 73.0771 74.6122C73.0045 73.7834 73.3269 72.6952 74.0442 71.3475C74.2323 70.5601 74.3829 69.7118 74.4961 68.8025C74.6093 67.8931 74.6408 67.1516 74.5906 66.5778C74.6902 66.2478 74.9767 65.4839 75.4501 64.2861C75.9235 63.0883 76.2375 61.9044 76.3921 60.7345C76.428 60.4102 76.493 60.0511 76.587 59.6574C76.7448 59.2582 76.8942 58.7632 77.0353 58.1727L79.4382 49.2895L80.5883 45.9124C80.6879 45.5825 81.0159 44.558 81.5721 42.8389C82.1922 41.1143 82.6297 40.2409 82.8848 40.2186L82.7927 39.1666C82.7704 38.9116 83.0486 38.052 83.6272 36.588L84.574 34.1924C85.0115 33.319 85.3243 32.4885 85.5124 31.7011C85.7587 30.8444 85.9025 30.2858 85.944 30.0252C85.9966 29.8921 86.1046 29.6578 86.268 29.3222C86.4313 28.9867 86.6294 28.6803 86.8621 28.403C87.5188 27.8315 88.1341 27.5207 88.7079 27.4705C89.6005 27.3924 90.4213 27.9631 91.1704 29.1824C91.6948 30.036 91.9877 30.8134 92.0491 31.5147C92.1048 32.1523 91.8849 32.9425 91.3891 33.8853C89.6286 38.7291 87.8474 43.7033 86.0454 48.8078C84.3072 53.9067 83.4715 56.8387 83.5385 57.6038L86.5809 54.9284C88.0935 53.1257 90.547 50.6946 93.9412 47.6352L104.868 37.0426C106.575 35.9938 108.556 34.4071 110.811 32.2824C111.415 31.8441 111.895 31.4488 112.249 31.0966C112.604 30.7443 112.903 30.4933 113.147 30.3434C113.502 29.9912 114.22 29.3823 115.3 28.5168C116.375 27.5876 117.075 27.1409 117.399 27.1768C118.073 26.7966 118.866 27.0485 119.778 27.9323C120.691 28.8162 121.12 29.6781 121.065 30.5181Z" stroke="#008C9E" stroke-width="2" mask="url(#path-1-outside-1)"/>
<path d="M120.157 87.0683C119.392 87.1353 118.775 87.0608 118.307 86.8448C117.838 86.6288 117.159 86.2064 116.268 85.5776C113.969 83.5302 112.739 81.582 112.577 79.7331C112.538 79.2868 112.542 78.9652 112.589 78.7684C112.741 78.3053 112.766 77.8535 112.663 77.4128C112.624 76.9665 112.599 76.6796 112.588 76.552C112.31 76.3193 112.169 76.1711 112.163 76.1073C112.152 75.9798 112.208 75.8786 112.33 75.8037C112.446 75.665 112.53 75.5292 112.583 75.3961C112.965 75.3626 113.062 75.0008 112.873 74.3106C112.701 73.8117 112.859 72.6737 113.346 70.8965C113.827 69.0555 114.482 67.36 115.31 65.8099C115.911 64.6009 116.805 63.0772 117.994 61.2386C119.246 59.3945 120.375 57.9787 121.38 56.9913C122.793 55.5185 124.078 54.4104 125.233 53.6668C126.389 52.9233 127.686 52.328 129.124 51.8809C130.372 51.4506 131.218 51.2159 131.665 51.1768C132.111 51.1378 132.505 51.2318 132.846 51.4589C133.245 51.6168 133.757 51.9575 134.381 52.4811C136.169 53.0955 137.435 53.9806 138.179 55.1362C138.98 56.2224 139.49 58.0088 139.707 60.4953C140.07 64.6395 138.774 69.2821 135.819 74.4232C134.536 76.6555 133.308 78.4012 132.133 79.6604C130.953 80.8558 129.366 82.1831 127.374 83.6423C126.119 84.7158 124.937 85.5259 123.828 86.0726C122.778 86.55 121.554 86.8819 120.157 87.0683ZM128.451 76.1278C129.831 74.2726 130.9 72.5408 131.659 70.9325C132.481 69.3187 133.203 67.296 133.826 64.8645C134.05 63.7528 134.095 62.4318 133.961 60.9017C133.794 58.989 133.444 57.9274 132.911 57.717C132.246 57.454 131.595 57.3504 130.957 57.4062C129.554 57.5289 128.144 58.2948 126.725 59.7038C125.016 61.4595 123.531 63.5809 122.271 66.0682C121.005 68.4917 119.758 71.4919 118.529 75.0686C118.009 76.4632 117.804 77.7981 117.916 79.0733C117.999 80.0296 118.289 80.7752 118.786 81.3099C119.346 81.8391 120.041 82.0675 120.87 81.9949C122.974 81.8109 125.501 79.8552 128.451 76.1278Z" stroke="#008C9E" stroke-width="2" mask="url(#path-1-outside-1)"/>
<path d="M180.869 78.7694C179.593 78.881 178.519 78.718 177.646 78.2805C176.767 77.7792 175.984 76.916 175.299 75.6911C174.547 73.7011 174.081 71.686 173.903 69.6458C173.819 68.6895 173.856 68.0116 174.014 67.6124C174.247 67.335 174.295 66.7847 174.159 65.9615C174.081 65.0689 174.025 64.4313 173.991 64.0488C173.799 62.588 173.289 61.8938 172.46 61.9663C171.886 62.0165 171.268 62.2954 170.606 62.8031C167.231 65.3469 164.402 67.5218 162.118 69.3277C159.835 71.1336 157.664 73.1223 155.606 75.294C154.802 76.3922 154.211 77.3434 153.831 78.1475C153.452 78.9516 153.181 79.5214 153.017 79.8569C152.848 80.1287 152.605 80.2785 152.286 80.3064C151.914 80.4674 151.665 80.5535 151.537 80.5646C151.219 80.5925 150.822 80.4666 150.348 80.1869C149.868 79.8434 149.559 79.6134 149.42 79.4971C149.143 79.2644 148.692 78.8862 148.068 78.3626C147.439 77.7752 147.081 77.3568 146.995 77.1074C146.95 76.5973 147.038 75.4011 147.259 73.5187C147.544 71.6307 147.791 70.4205 148.001 69.8882C148.193 69.8714 148.446 69.4638 148.762 68.6653C149.072 67.803 149.367 67.1347 149.646 66.6605C149.754 65.6874 150.39 63.4153 151.556 59.8442C152.314 58.2359 152.808 56.9078 153.038 55.8598C153.331 54.8063 153.475 53.5088 153.468 51.9675L153.452 51.7762C153.429 51.5212 153.508 51.3216 153.688 51.1773C153.863 50.9693 154.046 50.857 154.237 50.8402C154.655 50.4824 155.056 50.2868 155.438 50.2533C156.267 50.1808 157.141 50.6183 158.059 51.5659C159.121 52.6936 159.711 53.9269 159.828 55.2658C159.973 56.9235 159.15 59.6295 157.358 63.3839C157.206 63.847 156.975 64.5096 156.665 65.3719C156.419 66.2287 156.309 66.8164 156.337 67.1352L161.375 63.0325C161.835 62.4141 163.116 61.2741 165.219 59.6124C167.323 57.9508 168.812 56.9853 169.688 56.716C171.157 55.8808 172.082 55.4464 172.465 55.413C173.23 55.346 174.3 55.8306 175.676 56.8666C177.115 57.8971 177.996 58.7837 178.318 59.5265C178.379 60.2278 178.487 60.7323 178.643 61.0399C179.073 62.2872 179.364 63.7715 179.514 65.4929C179.615 66.6405 179.611 67.7009 179.503 68.674C179.454 69.5777 179.307 70.1045 179.064 70.2543C179.069 70.3181 179.109 70.4109 179.184 70.5329C179.259 70.6548 179.392 70.7074 179.584 70.6907L179.625 71.1688C179.115 71.2135 179.099 71.761 179.576 72.8114C180.054 73.8618 180.636 74.646 181.324 75.164C182.017 75.7458 182.392 76.3555 182.448 76.993C182.515 77.7581 181.988 78.3502 180.869 78.7694Z" stroke="#008C9E" stroke-width="2" mask="url(#path-1-outside-1)"/>
<path d="M195.836 78.9054C195.454 78.9389 194.9 78.8588 194.177 78.6651C193.453 78.4715 192.987 78.2874 192.779 78.1128C192.086 77.531 191.703 76.8257 191.631 75.9969C191.508 74.5943 192.061 72.8433 193.291 70.7442C193.607 69.9456 194.332 67.2161 195.466 62.5555L196.918 57.1282C196.951 56.0332 196.82 55.2737 196.526 54.8497C196.226 54.362 195.659 54.1225 194.825 54.1313L194.251 54.1815C193.677 54.2317 193.287 54.1695 193.079 53.995C192.865 53.7567 192.716 53.1594 192.633 52.203C192.629 51.4324 192.771 50.8418 193.056 50.4314C193.341 50.021 193.844 49.5273 194.564 48.9503C195.54 48.351 196.57 48.0039 197.654 47.9091C198.674 47.8198 199.458 47.976 200.007 48.3777C200.412 48.5993 200.717 49.1508 200.923 50.0322C201.187 50.8443 201.361 51.7285 201.444 52.6849C201.586 53.5719 201.706 54.2039 201.803 54.5808C202.094 54.2342 202.803 53.5297 203.931 52.4673C205.117 51.3357 206.117 50.2845 206.931 49.3138C207.948 48.4539 209.127 47.6119 210.469 46.7879C211.81 45.9639 212.767 45.5267 213.341 45.4765C214.043 45.4152 214.761 45.5451 215.495 45.8663C216.225 46.1237 216.739 46.4963 217.039 46.984C217.702 47.9539 218.07 48.8533 218.142 49.6821C218.22 50.5747 217.948 51.498 217.324 52.4519C216.812 53.2035 216.126 53.8095 215.267 54.2702C214.408 54.7308 213.787 54.9779 213.404 55.0113C213.022 55.0448 212.519 54.7997 211.895 54.2761C211.271 53.7525 210.91 53.3022 210.813 52.9253C210.79 52.6702 210.006 53.2528 208.46 54.673C206.972 56.0238 205.821 57.1845 205.007 58.1552C204.092 59.4558 203.18 61.1418 202.269 63.2131C201.422 65.2788 200.154 68.4092 198.465 72.6043C198.313 73.0674 197.961 74.1903 197.411 75.973C197.181 77.021 196.958 77.7793 196.742 78.2479C196.521 78.6528 196.219 78.872 195.836 78.9054Z" stroke="#008C9E" stroke-width="2" mask="url(#path-1-outside-1)"/>
<path d="M232.801 75.8641C232.175 76.0474 231.607 76.1614 231.097 76.206C230.268 76.2785 229.497 76.2817 228.785 76.2155C228.067 76.0856 227.697 75.8931 227.674 75.6381C227.658 75.4468 227.614 75.3221 227.545 75.2639C227.476 75.2058 227.345 75.185 227.154 75.2018C227.085 75.1436 226.88 75.0009 226.539 74.7738C226.197 74.5467 225.795 74.357 225.332 74.2048C224.68 73.3624 224.31 72.4311 224.221 71.411C224.126 70.3272 224.265 68.6125 224.638 66.2671C224.651 64.2101 225.384 61.5762 226.838 58.3653C228.291 55.1544 230.046 52.0778 232.101 49.1354C234.22 46.1875 236.157 44.0907 237.911 42.8451C238.784 41.8051 239.953 41.221 241.42 41.0927C242.567 40.9923 243.676 41.1843 244.747 41.6689C245.684 42.1009 246.684 42.8807 247.746 44.0084C248.872 45.1305 249.778 46.304 250.463 47.529C250.802 48.463 251.01 49.3763 251.088 50.2689C251.172 51.2253 251.176 52.7347 251.099 54.7972C250.881 55.9727 250.716 57.4005 250.606 59.0804C250.56 60.7548 250.59 62.1977 250.696 63.4091C250.647 64.3128 250.775 65.0405 251.08 65.592C251.379 66.0797 251.752 66.3041 252.199 66.265C252.517 66.2371 252.86 66.1108 253.226 65.8861C253.835 65.5115 254.523 65.2908 255.288 65.2238C255.989 65.1625 256.58 65.3035 257.059 65.647C257.539 65.9905 257.812 66.5448 257.879 67.3099C257.98 68.4575 257.283 69.6748 255.79 70.9619C254.36 72.2434 252.944 72.9455 251.541 73.0682C250.585 73.1519 249.628 72.4968 248.671 71.1029C247.772 69.6397 246.837 67.762 245.865 65.47L245.099 63.3206L241.33 67.6014L239.323 69.9934C238.392 71.1028 237.871 71.7587 237.76 71.9611C237.165 73.2338 235.512 74.5348 232.801 75.8641ZM232.595 70.1966C234.047 69.1701 235.791 67.4435 237.827 65.0168C239.863 62.5901 241.525 60.2925 242.813 58.124C244.561 55.3371 245.578 52.6462 245.865 50.0513C245.543 49.3085 245.062 48.5797 244.421 47.8648C243.781 47.1499 243.234 46.7802 242.782 46.7554C241.507 46.867 240.233 47.7173 238.958 49.3065C237.684 50.8956 236.205 53.0808 234.521 55.8622L231.775 60.8244C231.437 61.3679 230.887 62.7972 230.126 65.1124C229.36 67.3638 228.996 68.7126 229.035 69.1589C229.157 70.5615 229.633 71.2266 230.462 71.1541C231.1 71.0983 231.81 70.7791 232.595 70.1966Z" stroke="#008C9E" stroke-width="2" mask="url(#path-1-outside-1)"/>
<path d="M284.601 73.8378C284.172 74.0681 283.797 74.1972 283.479 74.2251C283.224 74.2474 282.894 74.1477 282.489 73.9262C282.084 73.7046 281.575 73.3958 280.962 72.9997C280.455 72.3374 280.112 71.725 279.934 71.1623C279.82 70.5941 279.688 69.4493 279.537 67.7278C279.573 65.9259 280.03 62.7058 280.909 58.0676C281.782 53.3655 282.447 50.32 282.904 48.9309C283.086 48.0798 283.153 47.3673 283.102 46.7935C283.058 46.2834 282.871 45.9786 282.541 45.879C282.205 45.7156 281.554 45.612 280.586 45.5681C278.205 45.5195 276.069 46.4451 274.18 48.345C272.354 50.2394 270.452 53.104 268.475 56.9389C266.714 60.3053 265.936 63.1679 266.143 65.5269C266.182 65.9732 266.282 66.382 266.443 66.7534C266.679 67.2467 267.211 67.4571 268.04 67.3846C268.614 67.3344 269.304 67.1456 270.11 66.818C270.981 66.4849 271.718 66.0992 272.322 65.6609C272.688 65.4361 273.852 64.7882 275.814 63.7171C276.196 63.6837 276.462 63.7889 276.612 64.0327C276.82 64.2073 276.952 64.6133 277.008 65.2509C277.053 65.7609 277.405 66.1156 278.065 66.3148C278.348 66.6113 278.018 67.2504 277.076 68.2323C276.128 69.1504 274.717 70.2697 272.841 71.5902C271.286 72.176 269.871 72.5246 268.596 72.6362C267.32 72.7477 266.041 72.4421 264.757 71.7192C262.547 70.6919 261.305 68.6162 261.032 65.4922C260.848 63.3882 261.161 60.7268 261.972 57.5079C262.833 54.8628 263.825 52.6238 264.95 50.7908C266.132 48.8885 267.681 46.7614 269.595 44.4096C269.886 44.063 270.487 43.5928 271.399 42.999C272.369 42.336 273.443 41.7602 274.621 41.2717C276.605 40.4556 278.267 39.989 279.606 39.8719C280.753 39.7715 281.799 39.9691 282.741 40.4648L284.001 40.5473C284.512 40.5027 284.875 40.2461 285.091 39.7775C285.37 39.3033 285.759 38.2414 286.257 36.5917L288.096 30.0706C288.489 28.6871 289.075 26.58 289.856 23.7492C290.7 20.9128 291.476 18.4036 292.184 16.2216C292.558 15.3537 292.834 14.4623 293.011 13.5474C293.251 12.6269 293.459 12.0627 293.633 11.8547L295.45 11.6957C295.769 11.6678 296.27 11.881 296.952 12.3353C297.629 12.7258 298.093 13.2633 298.346 13.9479C298.407 14.6493 298.24 16.0451 297.845 18.1355C297.444 20.1622 296.839 22.4315 296.031 24.9435C295.633 26.2633 295.302 27.2559 295.039 27.9213C293.271 33.4083 292.086 37.4951 291.486 40.1816L290.15 44.7314C289.524 46.3923 289.181 47.6108 289.12 48.387C288.836 50.275 288.468 51.9454 288.017 53.3983C287.56 54.7874 287.308 55.5803 287.261 55.7772L286.626 58.4346C285.816 61.6535 285.275 63.9173 285.004 65.2259C284.791 66.4651 284.741 67.7223 284.852 68.9975C284.964 70.2726 285.12 71.319 285.32 72.1367C285.381 72.838 285.142 73.405 284.601 73.8378Z" stroke="#008C9E" stroke-width="2" mask="url(#path-1-outside-1)"/>
<path d="M65.9772 115.643C66.1605 116.27 66.0513 116.857 65.6497 117.406C65.3062 117.886 64.4666 118.57 63.1309 119.458C60.3845 121.111 58.8508 122.306 58.5296 123.04C58.2331 123.323 57.5474 123.929 56.4723 124.859C55.4609 125.782 54.1794 126.922 52.6277 128.279C50.2862 130.154 48.2552 131.906 46.5345 133.534C44.8776 135.156 43.7958 136.375 43.2889 137.191C43.0976 137.207 42.851 137.325 42.5489 137.544C42.3106 137.758 42.093 137.841 41.8962 137.794C41.7743 137.869 41.5041 138.086 41.0857 138.443C40.6673 138.801 40.3736 139.116 40.2046 139.388C40.058 139.915 39.7838 140.452 39.3822 141.002C39.0387 141.481 38.5772 141.714 37.9979 141.701C36.8423 142.444 34.6048 144.407 31.2854 147.588C32.1612 152.459 33.781 156.653 36.1447 160.173C38.3507 164.091 40.4936 166.923 42.5737 168.669C44.0408 170.018 45.3845 171.057 46.6046 171.785C47.8885 172.508 48.8492 172.842 49.4868 172.786C50.0773 172.927 50.9133 173.303 51.9948 173.916C53.0763 174.528 53.6684 175.054 53.7712 175.495C53.8461 175.617 53.9003 175.869 53.9338 176.251C54.0174 177.208 53.9194 177.923 53.6397 178.397C53.4237 178.866 53.2284 179.204 53.0539 179.412C52.8849 179.684 52.5773 179.839 52.131 179.878C51.4297 179.94 50.5467 179.76 49.482 179.339C48.4674 179.492 46.6305 178.689 43.971 176.93C41.3116 175.171 39.2399 173.522 37.756 171.981C35.8171 169.645 34.1208 167.513 32.6672 165.584C31.2773 163.65 30.1576 161.5 29.3081 159.133C28.9526 158.007 28.3239 156.328 27.4217 154.094C26.8694 152.921 26.5391 152.083 26.4307 151.579L26.2718 149.762L25.3752 152.731C25.3281 152.928 25.0058 154.016 24.408 155.996C23.874 157.97 23.1496 161.438 22.2346 166.401L21.1395 171.508C20.0747 176.226 19.3403 179.214 18.9362 180.47C18.5959 181.72 18.1708 182.368 17.6607 182.412C17.4057 182.435 17.0411 182.306 16.5669 182.026C16.162 181.805 15.8584 181.638 15.656 181.528C15.118 181.254 14.7423 180.997 14.5287 180.759C14.3151 180.521 14.1916 180.21 14.1581 179.828C14.1191 179.381 14.2087 178.571 14.4271 177.395C14.2908 176.572 14.2849 175.769 14.4092 174.987C14.5335 174.206 14.5901 173.751 14.579 173.623C15.0253 173.584 15.2038 173.055 15.1145 172.035C15.0699 171.525 15.2592 170.384 15.6824 168.612L16.2838 165.572L17.1887 162.698C17.7339 160.852 18.0009 159.865 17.9897 159.737C17.9172 158.909 18.2396 157.82 18.9568 156.473C19.1449 155.685 19.2956 154.837 19.4087 153.928C19.5219 153.018 19.5534 152.277 19.5032 151.703C19.6028 151.373 19.8893 150.609 20.3627 149.411C20.8362 148.213 21.1502 147.03 21.3048 145.86C21.3407 145.535 21.4056 145.176 21.4997 144.783C21.6575 144.383 21.8069 143.888 21.948 143.298L24.3509 134.415L25.5009 131.037C25.6005 130.708 25.9285 129.683 26.4848 127.964C27.1048 126.239 27.5424 125.366 27.7974 125.344L27.7054 124.292C27.6831 124.037 27.9612 123.177 28.5398 121.713L29.4866 119.318C29.9242 118.444 30.237 117.614 30.4251 116.826C30.6713 115.97 30.8152 115.411 30.8566 115.15C30.9092 115.017 31.0172 114.783 31.1806 114.447C31.344 114.112 31.542 113.805 31.7748 113.528C32.4314 112.957 33.0467 112.646 33.6205 112.596C34.5131 112.518 35.334 113.088 36.0831 114.308C36.6075 115.161 36.9003 115.939 36.9617 116.64C37.0175 117.277 36.7975 118.068 36.3018 119.01C34.5413 123.854 32.76 128.828 30.958 133.933C29.2198 139.032 28.3842 141.964 28.4511 142.729L31.4935 140.054C33.0062 138.251 35.4596 135.82 38.8539 132.76L49.7803 122.168C51.4873 121.119 53.4686 119.532 55.724 117.408C56.3281 116.969 56.8075 116.574 57.1621 116.222C57.5168 115.869 57.816 115.618 58.0599 115.469C58.4145 115.116 59.1322 114.507 60.2129 113.642C61.288 112.713 61.9877 112.266 62.3121 112.302C62.9855 111.922 63.7785 112.174 64.691 113.057C65.6035 113.941 66.0322 114.803 65.9772 115.643Z" stroke="#008C9E" stroke-width="2" mask="url(#path-1-outside-1)"/>
<path d="M65.0697 172.193C64.3046 172.26 63.6878 172.186 63.2192 171.97C62.7506 171.754 62.0712 171.332 61.181 170.703C58.8818 168.655 57.6513 166.707 57.4896 164.858C57.4505 164.412 57.4545 164.09 57.5015 163.893C57.6538 163.43 57.6785 162.979 57.5757 162.538C57.5366 162.092 57.5115 161.805 57.5004 161.677C57.223 161.444 57.0816 161.296 57.076 161.232C57.0648 161.105 57.1202 161.004 57.2422 160.929C57.3585 160.79 57.443 160.654 57.4956 160.521C57.8781 160.488 57.975 160.126 57.7861 159.436C57.614 158.937 57.7714 157.799 58.2583 156.022C58.7397 154.181 59.3944 152.485 60.2225 150.935C60.8234 149.726 61.718 148.202 62.9063 146.364C64.1583 144.52 65.2872 143.104 66.293 142.116C67.706 140.644 68.9903 139.535 70.1459 138.792C71.3015 138.048 72.5985 137.453 74.0371 137.006C75.2843 136.576 76.1311 136.341 76.5773 136.302C77.0236 136.263 77.4173 136.357 77.7584 136.584C78.1577 136.742 78.6694 137.083 79.2934 137.606C81.0817 138.221 82.3477 139.106 83.0912 140.261C83.893 141.348 84.4026 143.134 84.6201 145.62C84.9827 149.765 83.6864 154.407 80.7312 159.548C79.4489 161.781 78.2204 163.526 77.0456 164.785C75.8653 165.981 74.279 167.308 72.2866 168.767C71.0314 169.841 69.8495 170.651 68.7409 171.198C67.6905 171.675 66.4668 172.007 65.0697 172.193ZM73.3638 161.253C74.7433 159.398 75.8124 157.666 76.5712 156.058C77.3936 154.444 78.1161 152.421 78.7385 149.99C78.9625 148.878 79.0075 147.557 78.8737 146.027C78.7063 144.114 78.3565 143.053 77.8241 142.842C77.1587 142.579 76.5072 142.476 75.8696 142.531C74.467 142.654 73.0563 143.42 71.6377 144.829C69.9283 146.585 68.4435 148.706 67.1835 151.193C65.9179 153.617 64.6706 156.617 63.4417 160.194C62.9212 161.588 62.7168 162.923 62.8284 164.198C62.912 165.155 63.2021 165.9 63.6986 166.435C64.2589 166.964 64.9534 167.193 65.7823 167.12C67.8862 166.936 70.4134 164.98 73.3638 161.253Z" stroke="#008C9E" stroke-width="2" mask="url(#path-1-outside-1)"/>
<path d="M93.8356 167.749C93.2921 167.412 92.9107 167.092 92.6916 166.789C92.4724 166.487 92.335 166.018 92.2792 165.38C92.229 164.806 92.219 164.325 92.2493 163.937C92.2509 161.753 92.5088 159.193 93.0228 156.257L93.3337 154.302C93.3855 152.691 94.2084 149.247 95.8024 143.968C97.3963 138.688 98.75 135.069 99.8634 133.108C100.346 132.745 100.874 132.538 101.447 132.488C102.276 132.415 103.003 132.641 103.627 133.164C104.031 133.386 104.265 133.847 104.326 134.549C104.382 135.186 104.21 136.165 103.812 137.485C103.472 138.735 102.834 140.622 101.898 143.145C101.687 143.677 101.325 144.673 100.81 146.131C100.359 147.584 100.145 148.438 100.167 148.693C100.178 148.821 100.215 148.882 100.279 148.876C100.407 148.865 100.531 148.822 100.653 148.747C100.77 148.608 100.889 148.501 101.011 148.427C101.606 147.154 103.151 145.348 105.644 143.01C108.202 140.666 109.968 139.195 110.944 138.595C111.368 138.301 111.919 137.996 112.598 137.68C113.277 137.363 113.739 137.13 113.983 136.98C114.958 136.381 116.147 136.02 117.55 135.897C118.442 135.819 119.221 135.912 119.887 136.175C120.61 136.368 121.125 136.741 121.43 137.293C121.533 137.733 121.723 138.07 122 138.303C122.341 138.53 122.579 138.67 122.712 138.722C122.903 138.706 123.039 138.79 123.119 138.976C123.194 139.098 123.234 139.19 123.24 139.254C123.279 139.701 123.049 140.01 122.55 140.182C122.046 140.29 121.127 140.435 119.794 140.616C119.098 140.741 118.379 140.964 117.636 141.286C116.893 141.608 116.156 141.994 115.424 142.444C112.032 144.796 109.494 146.624 107.809 147.928C106.188 149.226 104.572 150.942 102.959 153.074C102.325 153.901 101.52 155.352 100.546 157.429C100.138 157.915 99.7635 159.136 99.4208 161.093C99.1362 162.981 99.0135 164.148 99.0525 164.595C99.0055 164.792 98.9114 165.185 98.7704 165.776C98.6237 166.303 98.3814 166.838 98.0435 167.381C97.3677 168.468 96.7748 169.034 96.2647 169.079C95.6909 169.129 94.8812 168.686 93.8356 167.749Z" stroke="#008C9E" stroke-width="2" mask="url(#path-1-outside-1)"/>
<path d="M134.66 164.756C134.033 164.939 133.465 165.053 132.955 165.098C132.126 165.17 131.356 165.174 130.643 165.107C129.925 164.977 129.555 164.785 129.533 164.53C129.516 164.339 129.473 164.214 129.404 164.156C129.334 164.098 129.204 164.077 129.013 164.094C128.943 164.035 128.738 163.893 128.397 163.666C128.056 163.439 127.654 163.249 127.191 163.097C126.539 162.254 126.168 161.323 126.079 160.303C125.984 159.219 126.123 157.504 126.496 155.159C126.509 153.102 127.242 150.468 128.696 147.257C130.15 144.046 131.904 140.97 133.96 138.027C136.079 135.079 138.015 132.983 139.769 131.737C140.642 130.697 141.812 130.113 143.278 129.985C144.426 129.884 145.535 130.076 146.605 130.561C147.542 130.993 148.542 131.773 149.604 132.9C150.73 134.022 151.636 135.196 152.321 136.421C152.66 137.355 152.869 138.268 152.947 139.161C153.03 140.117 153.034 141.627 152.957 143.689C152.739 144.865 152.575 146.292 152.465 147.972C152.419 149.647 152.448 151.09 152.554 152.301C152.505 153.205 152.633 153.932 152.938 154.484C153.238 154.972 153.611 155.196 154.057 155.157C154.376 155.129 154.718 155.003 155.084 154.778C155.694 154.403 156.381 154.183 157.146 154.116C157.847 154.054 158.438 154.195 158.918 154.539C159.397 154.882 159.671 155.437 159.738 156.202C159.838 157.349 159.142 158.567 157.648 159.854C156.218 161.135 154.802 161.837 153.399 161.96C152.443 162.044 151.486 161.389 150.529 159.995C149.63 158.532 148.695 156.654 147.724 154.362L146.957 152.212L143.188 156.493L141.181 158.885C140.25 159.995 139.729 160.651 139.618 160.853C139.023 162.126 137.37 163.427 134.66 164.756ZM134.453 159.088C135.905 158.062 137.649 156.335 139.686 153.909C141.722 151.482 143.384 149.184 144.672 147.016C146.42 144.229 147.437 141.538 147.724 138.943C147.402 138.2 146.92 137.472 146.28 136.757C145.639 136.042 145.093 135.672 144.641 135.647C143.366 135.759 142.091 136.609 140.817 138.198C139.542 139.787 138.063 141.973 136.379 144.754L133.633 149.716C133.295 150.26 132.746 151.689 131.985 154.004C131.218 156.256 130.854 157.604 130.893 158.051C131.016 159.453 131.492 160.118 132.32 160.046C132.958 159.99 133.669 159.671 134.453 159.088Z" stroke="#008C9E" stroke-width="2" mask="url(#path-1-outside-1)"/>
<path d="M172.367 161.361C172.117 161.447 171.737 161.512 171.227 161.557C169.633 161.696 168.034 161.033 166.428 159.567C166.07 159.149 165.88 158.812 165.858 158.557C165.835 158.302 165.911 158.071 166.086 157.863C166.26 157.655 166.507 157.537 166.826 157.509C167.081 157.487 167.212 157.154 167.22 156.511C167.286 155.798 167.33 154.831 167.352 153.608C167.349 152.838 167.444 152.09 167.638 151.367C167.826 150.579 167.909 150.058 167.886 149.803C167.933 149.606 167.952 149.091 167.944 148.256C167.993 147.353 168.117 146.571 168.317 145.911C168.554 144.22 168.956 141.84 169.523 138.771C170.148 135.632 170.68 133.273 171.12 131.692C171.147 130.534 171.663 128.722 172.668 126.257C173.584 122.772 175.066 118.049 177.114 112.087C179.162 106.126 180.44 102.738 180.947 101.923C181.482 101.426 182.004 101.156 182.514 101.111C183.343 101.038 184.173 101.351 185.005 102.049C185.577 102.706 185.89 103.353 185.946 103.991C186.019 104.82 185.685 105.78 184.946 106.873C184.73 107.342 184.49 107.909 184.227 108.574C183.959 109.176 183.69 109.778 183.421 110.379C183.139 111.56 182.478 113.545 181.437 116.335C179.975 120.189 178.813 123.792 177.95 127.144C177.593 128.203 177.218 129.424 176.825 130.808C176.496 132.186 176.244 132.979 176.069 133.187C175.915 134.357 175.632 135.538 175.223 136.73C174.617 139.353 174.266 141.214 174.17 142.315L177.32 138.667C179.688 135.633 182.043 133.178 184.385 131.303C186.721 129.364 188.717 128.322 190.375 128.177C191.714 128.06 193.225 128.441 194.908 129.322C196.591 130.203 197.741 131.227 198.357 132.393C198.898 133.438 199.21 134.439 199.294 135.395C199.534 138.137 198.492 141.279 196.168 144.823C195.631 146.027 194.902 147.247 193.983 148.484C193.121 149.651 192.333 150.555 191.618 151.196C190.036 152.941 189.007 154.026 188.53 154.454C187.873 155.025 187.243 155.53 186.639 155.968C186.093 156.337 185.417 156.686 184.61 157.013C183.471 157.948 181.872 158.762 179.813 159.456C177.812 160.081 175.33 160.716 172.367 161.361ZM174.426 156.266C175.191 156.199 176.105 155.99 177.166 155.641C178.228 155.291 179.177 154.758 180.014 154.042C182.633 152.4 184.931 150.4 186.909 148.043C188.887 145.685 190.353 143.341 191.305 141.009C192.321 138.671 192.762 136.737 192.628 135.207C192.517 133.932 191.919 133.342 190.835 133.437C189.943 133.515 188.715 134.168 187.152 135.397C185.589 136.626 183.874 138.318 182.007 140.473C180.658 141.94 178.923 144.148 176.804 147.096C176.804 147.096 176.289 147.815 175.259 149.255C175.148 149.457 174.903 149.96 174.523 150.764C174.138 151.505 173.939 152.165 173.926 152.744C173.818 153.717 173.789 154.491 173.839 155.064C173.912 155.893 174.108 156.294 174.426 156.266Z" stroke="#008C9E" stroke-width="2" mask="url(#path-1-outside-1)"/>
<path d="M219.012 118.926C217.801 119.032 216.502 118.503 215.115 117.339C213.787 116.106 213.061 114.789 212.938 113.386C212.911 113.067 213.229 112.301 213.894 111.086C214.558 109.872 214.885 109.2 214.874 109.073C215.32 109.034 215.706 109.032 216.03 109.068C216.354 109.104 216.748 109.198 217.211 109.35C217.896 110.575 218.903 111.804 220.232 113.037C220.659 113.514 221.051 113.961 221.409 114.38C221.767 114.798 221.96 115.167 221.988 115.485C222.083 116.569 222.083 117.308 221.989 117.702C221.959 118.09 221.726 118.367 221.291 118.534C220.92 118.695 220.16 118.825 219.012 118.926ZM208.125 156.401C207.934 156.418 207.673 156.377 207.343 156.277C207.013 156.177 206.782 156.101 206.649 156.049C206.632 155.857 206.509 155.547 206.278 155.117C206.106 154.618 206.014 154.305 206.003 154.178C205.471 153.967 205.188 153.671 205.155 153.288C205.127 152.97 205.183 152.515 205.324 151.924C206.025 150.385 207.201 146.942 208.853 141.593C210.5 136.181 211.409 132.986 211.58 132.007C211.558 131.752 211.626 131.425 211.784 131.026C211.941 130.627 212.137 130.288 212.369 130.011C212.602 129.734 212.878 129.581 213.197 129.553C213.898 129.492 214.577 129.914 215.235 130.82C215.956 131.721 216.367 132.745 216.467 133.893C216.534 134.658 215.993 136.921 214.845 140.684C213.755 144.377 212.476 148.119 211.009 151.909C210.798 152.441 210.48 153.208 210.053 154.209C209.691 155.204 209.39 155.809 209.152 156.022C208.914 156.236 208.572 156.362 208.125 156.401Z" stroke="#008C9E" stroke-width="2" mask="url(#path-1-outside-1)"/>
<path d="M231.03 157.674C230.264 157.741 229.648 157.666 229.179 157.45C228.71 157.234 228.031 156.812 227.141 156.183C224.842 154.136 223.611 152.188 223.449 150.339C223.41 149.892 223.414 149.571 223.461 149.374C223.614 148.911 223.638 148.459 223.535 148.018C223.496 147.572 223.471 147.285 223.46 147.158C223.183 146.925 223.041 146.777 223.036 146.713C223.025 146.585 223.08 146.484 223.202 146.409C223.318 146.271 223.403 146.135 223.455 146.002C223.838 145.968 223.935 145.606 223.746 144.916C223.574 144.417 223.731 143.279 224.218 141.502C224.699 139.661 225.354 137.965 226.182 136.415C226.783 135.206 227.678 133.683 228.866 131.844C230.118 130 231.247 128.584 232.253 127.597C233.666 126.124 234.95 125.016 236.106 124.272C237.261 123.529 238.558 122.933 239.997 122.486C241.244 122.056 242.091 121.821 242.537 121.782C242.983 121.743 243.377 121.837 243.718 122.064C244.117 122.222 244.629 122.563 245.253 123.087C247.042 123.701 248.307 124.586 249.051 125.742C249.853 126.828 250.362 128.614 250.58 131.101C250.942 135.245 249.646 139.888 246.691 145.029C245.409 147.261 244.18 149.007 243.005 150.266C241.825 151.461 240.239 152.789 238.246 154.248C236.991 155.321 235.809 156.131 234.701 156.678C233.65 157.155 232.427 157.487 231.03 157.674ZM239.324 146.733C240.703 144.878 241.772 143.146 242.531 141.538C243.353 139.924 244.076 137.902 244.698 135.47C244.922 134.358 244.967 133.037 244.833 131.507C244.666 129.594 244.316 128.533 243.784 128.323C243.118 128.06 242.467 127.956 241.829 128.012C240.427 128.134 239.016 128.9 237.598 130.309C235.888 132.065 234.403 134.186 233.143 136.674C231.878 139.097 230.63 142.097 229.401 145.674C228.881 147.069 228.677 148.404 228.788 149.679C228.872 150.635 229.162 151.381 229.658 151.915C230.219 152.445 230.913 152.673 231.742 152.6C233.846 152.416 236.373 150.461 239.324 146.733Z" stroke="#008C9E" stroke-width="2" mask="url(#path-1-outside-1)"/>
<path d="M285.763 151.536C284.881 151.742 283.326 150.85 281.096 148.861C280.449 148.082 279.848 146.721 279.293 144.778C278.796 142.766 278.383 140.618 278.055 138.334C273.687 146.425 269.986 151.118 266.951 152.411C266.766 152.492 266.513 152.546 266.195 152.574C265.493 152.635 264.918 152.3 264.468 151.568C264.099 151.022 263.746 150.282 263.407 149.348C263.063 148.351 262.88 147.371 262.861 146.409C262.132 142.489 261.617 138.808 261.316 135.365C261.06 132.433 261.049 130.474 261.284 129.49C261.198 129.24 261.147 129.02 261.13 128.829C261.107 128.574 261.094 128.414 261.088 128.351C260.944 128.17 260.833 127.634 260.754 126.741C260.66 125.658 260.62 124.473 260.636 123.186C260.716 121.894 260.84 121.113 261.009 120.841C261.103 120.447 261.524 120.121 262.273 119.863C263.246 119.971 263.789 120.308 263.903 120.877C264.036 120.929 264.21 121.075 264.423 121.313C264.701 121.546 264.964 121.619 265.213 121.533C265.618 121.755 265.963 123.491 266.247 126.743C266.217 127.131 266.227 127.612 266.277 128.186C266.386 128.69 266.451 129.07 266.473 129.325C266.507 129.707 266.497 129.965 266.445 130.098C266.556 131.373 266.805 133.118 267.192 135.333C267.309 136.672 267.372 137.759 267.381 138.593L267.586 142.044C267.895 143.366 268.126 144.181 268.282 144.489C268.501 144.791 268.791 144.798 269.151 144.509C269.766 144.198 271.375 141.295 273.978 135.799C276.025 132.023 277.331 129.692 277.896 128.807C277.983 126.872 278.139 124.61 278.362 122.021C279.224 120.853 280.037 120.236 280.802 120.169C281.439 120.113 281.983 120.451 282.432 121.183C283.364 121.551 283.872 122.213 283.955 123.17C283.994 123.616 283.99 123.938 283.943 124.134L282.961 129.424C282.659 131.121 282.662 133.723 282.969 137.229C283.248 140.417 283.637 142.664 284.137 143.969C284.182 144.479 284.491 144.709 285.065 144.659C285.702 144.603 286.495 144.116 287.442 143.198C288.717 141.609 290.135 139.461 291.697 136.755C293.317 133.979 294.105 132.336 294.06 131.826C294.016 131.316 294.096 130.763 294.301 130.167C294.5 129.507 294.777 129.001 295.131 128.649C295.359 128.307 295.514 127.876 295.597 127.355C295.679 126.834 295.771 126.408 295.87 126.078C295.923 125.945 295.973 125.78 296.02 125.583C296.125 125.317 296.227 125.019 296.327 124.689L296.206 124.411C296.178 124.092 296.371 123.722 296.784 123.3C297.191 122.815 297.418 122.474 297.465 122.277C297.567 121.24 298.064 120.683 298.957 120.605C299.467 120.56 299.965 120.741 300.45 121.148C300.994 121.486 301.328 122.003 301.453 122.699C301.559 123.91 301.184 125.87 300.329 128.579C299.468 131.224 298.455 133.594 297.289 135.687C297.184 135.953 297.032 136.416 296.832 137.076C296.628 137.672 296.248 138.477 295.694 139.489C295.199 140.432 294.441 141.686 293.422 143.253C292.577 144.612 291.742 145.713 290.916 146.556C289.839 148.192 288.916 149.397 288.149 150.171C287.381 150.945 286.586 151.4 285.763 151.536Z" stroke="#008C9E" stroke-width="2" mask="url(#path-1-outside-1)"/>
<path d="M313.543 152.286C312.357 151.94 311.185 151.4 310.029 150.666C308.867 149.868 308.067 149.167 307.628 148.563C307.617 148.436 307.598 148.212 307.57 147.894C307.542 147.575 307.621 147.375 307.807 147.295C307.987 147.151 308.332 147.056 308.842 147.011C309.926 146.917 311.658 146.894 314.04 146.942C315.442 146.819 317.022 146.521 318.779 146.046C320.531 145.507 321.483 145.006 321.635 144.543C321.827 144.526 321.919 144.486 321.914 144.422C321.903 144.295 321.62 143.998 321.065 143.533C320.938 143.544 320.642 143.474 320.179 143.321C319.711 143.105 319.413 143.003 319.285 143.014C319.263 142.759 318.948 142.465 318.341 142.133C317.728 141.737 317.057 141.41 316.328 141.153C314.345 139.784 312.94 138.783 312.114 138.149C311.282 137.45 310.947 136.934 311.111 136.598L311.069 136.12C310.623 136.159 310.06 135.598 309.38 134.437C308.758 133.206 308.4 132.049 308.305 130.965C308.205 129.818 308.544 128.182 309.321 126.058C310.163 123.928 311.166 122.17 312.329 120.784C313.969 118.97 316.111 117.016 318.755 114.921C321.462 112.821 323.622 111.444 325.235 110.789C326.28 110.248 327.344 109.93 328.428 109.835C329.448 109.746 330.329 109.894 331.069 110.278C331.942 110.716 332.803 111.38 333.652 112.269C334.565 113.153 335.182 113.966 335.504 114.709C335.627 116.111 335.587 117.496 335.386 118.863C335.242 120.16 334.883 120.834 334.31 120.884C334.246 120.89 334.153 120.93 334.031 121.005C333.909 121.08 333.859 121.245 333.882 121.5C333.904 121.755 333.807 122.117 333.591 122.586C333.37 122.99 333.052 123.404 332.64 123.825C331.326 124.968 330.223 125.578 329.331 125.657C328.629 125.718 328.152 125.406 327.9 124.722C327.761 124.605 327.617 124.425 327.467 124.181C327.317 123.937 327.147 123.824 326.955 123.841C326.892 123.846 326.756 123.762 326.548 123.587C326.398 123.343 326.306 123.03 326.273 122.648C326.256 122.456 326.303 122.259 326.414 122.057C326.583 121.785 326.696 121.615 326.754 121.545C327.137 121.512 327.71 120.723 328.475 119.178C329.233 117.57 329.59 116.511 329.546 116.001C329.512 115.618 329.429 115.401 329.296 115.348C329.227 115.29 328.937 115.283 328.427 115.328C323.649 117.995 320.705 119.955 319.594 121.208C319.436 121.607 319.299 121.876 319.183 122.015C319.13 122.148 318.976 122.226 318.721 122.248C318.671 121.674 317.171 123.99 314.221 129.195C314.105 129.333 313.979 129.73 313.844 130.384C313.772 131.033 313.756 131.58 313.795 132.027C313.712 132.548 313.673 132.84 313.679 132.904C313.701 133.159 313.819 133.406 314.033 133.644C314.31 133.877 314.654 134.136 315.064 134.421C315.469 134.643 315.877 134.896 316.287 135.182C319.82 137.378 322.28 139.058 323.666 140.222C325.111 141.316 325.998 142.266 326.325 143.073C327.265 144.275 327.78 145.387 327.87 146.407C327.936 147.172 327.708 147.866 327.185 148.49C326.661 149.114 325.848 149.732 324.745 150.342C324.071 150.722 322.914 151.08 321.273 151.417C319.638 151.817 318.023 152.087 316.429 152.226C315.537 152.304 314.575 152.324 313.543 152.286Z" stroke="#008C9E" stroke-width="2" mask="url(#path-1-outside-1)"/>
<path d="M359.804 122.798C358.172 123.968 356.859 125.111 355.864 126.226C355.509 126.578 354.98 127.139 354.276 127.907C353.567 128.611 352.939 129.148 352.394 129.517C352.982 130.365 353.449 130.935 353.796 131.225L355.639 133.57C358.102 136.759 359.892 138.851 361.007 139.846C362.121 140.84 363.787 141.883 366.002 142.974C366.615 143.37 366.92 143.922 366.918 144.629C366.724 145.352 366.476 145.824 366.174 146.043C365.93 146.193 365.121 146.488 363.746 146.93C362.784 146.95 362.037 146.855 361.505 146.644C361.036 146.428 359.987 145.813 358.356 144.8C357.252 143.933 355.606 142.374 353.418 140.124C351.288 137.805 349.328 135.599 347.539 133.507C347.209 133.408 346.926 133.111 346.69 132.618C345.782 135.46 345.354 137.168 345.404 137.742C345.116 138.859 344.927 140 344.836 141.164C344.563 143.18 344.213 144.688 343.786 145.689C343.781 147.103 343.365 147.846 342.536 147.918C342.09 147.957 341.496 147.784 340.756 147.399C340.085 147.073 339.573 146.732 339.221 146.377C338.932 146.017 338.763 145.55 338.713 144.976C338.635 144.084 338.705 143.05 338.923 141.874C339.142 140.699 339.395 139.552 339.682 138.435C339.804 136.882 339.95 135.617 340.121 134.638C340.351 133.59 340.742 132.56 341.296 131.548C341.673 129.973 342.06 128.526 342.458 127.206C343.75 122.146 344.57 118.67 344.919 116.776C345.539 115.052 346.119 113.234 346.658 111.324C347.284 109.663 348.174 106.983 349.328 103.285L350.182 99.8369C350.824 96.8898 351.562 94.673 352.395 93.1867C352.564 92.915 353.06 91.9722 353.882 90.3584C353.924 90.0978 354.168 89.9479 354.614 89.9089C355.06 89.8699 355.483 89.9292 355.882 90.087C356.276 90.1811 356.58 90.3472 356.793 90.5855C357.106 90.4939 357.493 90.8776 357.954 91.7368C358.478 92.5903 358.731 93.2749 358.712 93.7905C358.773 94.4918 358.585 95.2792 358.148 96.1527C357.973 96.3607 357.751 96.7655 357.483 97.3672C357.214 97.9689 356.885 98.6081 356.494 99.2847C356.353 99.8752 356.168 100.694 355.938 101.742C355.773 102.785 355.555 103.607 355.287 104.209C355.082 104.805 354.793 105.537 354.419 106.405C354.103 107.203 353.898 107.799 353.804 108.193C353.558 109.05 353.125 110.34 352.505 112.065C351.633 114.583 351.106 116.267 350.923 117.118C350.835 117.576 350.579 118.69 350.156 120.462C349.727 122.17 349.223 123.756 348.645 125.22C348.872 124.878 349.075 124.636 349.256 124.491C349.43 124.283 349.573 124.078 349.684 123.876C349.725 123.615 350.042 123.202 350.635 122.636C351.292 122.065 351.737 121.64 351.969 121.363C353.66 120.123 355.813 118.296 358.428 115.883C361.102 113.401 362.672 111.882 363.137 111.328C363.486 110.912 363.852 110.687 364.235 110.653C364.553 110.625 364.912 110.69 365.312 110.848C366.093 110.973 366.631 111.247 366.925 111.671C367.214 112.031 367.408 112.785 367.509 113.932C367.761 114.617 367.571 115.373 366.936 116.199C366.302 117.025 365.264 118.016 363.823 119.17C362.26 120.398 360.921 121.608 359.804 122.798Z" stroke="#008C9E" stroke-width="2" mask="url(#path-1-outside-1)"/>
<path d="M387.381 104.003C387.207 104.211 387.024 104.323 386.833 104.34C386.578 104.362 386.147 104.207 385.539 103.875C384.896 103.867 383.988 103.4 382.815 102.475C381.7 101.48 381.129 100.824 381.101 100.505C380.862 99.2408 380.933 97.8533 381.315 96.3422C381.696 94.8312 382.554 93.9853 383.887 93.8044C384.079 93.7876 384.339 93.8291 384.669 93.9287C384.994 93.9646 385.552 94.1084 386.345 94.3603C386.495 94.6041 386.797 95.1238 387.252 95.9191C387.771 96.7089 388.16 97.478 388.418 98.2263C388.74 98.9691 388.929 99.6593 388.985 100.297C389.118 101.827 388.584 103.062 387.381 104.003ZM379.913 143.106C378.957 143.19 378.043 142.66 377.172 141.515C376.365 140.365 375.844 139.19 375.611 137.99C375.654 135.545 375.695 133.807 375.733 132.775C376.037 130.372 376.552 127.082 377.279 122.907C378.064 118.663 378.561 116.274 378.772 115.742C378.935 115.406 379.208 115.222 379.591 115.188C379.973 115.155 380.399 115.246 380.867 115.462C381.336 115.678 381.744 115.931 382.09 116.222C382.662 116.879 382.987 117.654 383.065 118.546C383.182 119.885 382.79 122.746 381.888 127.129C381.275 130.395 380.899 132.709 380.761 134.07C380.623 135.431 380.653 136.874 380.85 138.399C380.826 138.851 380.765 139.627 380.669 140.727C380.63 141.759 380.559 142.407 380.454 142.674C380.348 142.94 380.168 143.084 379.913 143.106Z" stroke="#008C9E" stroke-width="2" mask="url(#path-1-outside-1)"/>
</svg>
